<?xml version="1.0" encoding="UTF-8"?>
<svg width="144px" height="144px" viewBox="0 0 144 144" version="1.1" xmlns="http://www.w3.org/2000/svg" xmlns:xlink="http://www.w3.org/1999/xlink">
    <title>vertical</title>
    <defs>
        <linearGradient x1="91.6384167%" y1="9.4772155%" x2="11.0308665%" y2="91.525927%" id="linearGradient-1">
            <stop stop-color="#01FDF5" offset="0%"></stop>
            <stop stop-color="#0061EF" offset="100%"></stop>
        </linearGradient>
    </defs>
    <g id="vertical" stroke="none" stroke-width="1" fill="none" fill-rule="evenodd">
        <g id="LYOPAY_Logo-(3)" transform="translate(24.000000, 12.000000)">
            <g id="Group" transform="translate(2.702392, 0.000000)" fill="url(#linearGradient-1)">
                <path d="M27.0394341,0 C12.1681333,0 0,12.1673574 0,27.0394341 L0,63.0914957 C0,77.9627965 12.1681333,90.1309298 27.0394341,90.1309298 L63.0914957,90.1309298 C77.9627965,90.1309298 90.1309298,77.9627965 90.1309298,63.0914957 L90.1309298,27.0394341 C90.1309298,12.1673574 77.9627965,0 63.0914957,0 L27.0394341,0 Z" id="Path"></path>
            </g>
            <g id="Group" opacity="0.8" transform="translate(56.948850, 35.884471)" fill="#FFFFFF" fill-rule="nonzero">
                <g transform="translate(0.000000, 0.000000)" id="Path">
                    <path d="M5.91686441,0 L0,0 L0,24.8553306 C0,28.4569677 2.59221663,31.7389421 6.17600848,32.0981747 C10.2974855,32.5101673 13.7718782,29.2848322 13.7718782,25.2479261 L13.7718782,7.8550138 C13.7718782,3.51706614 10.2548121,0 5.91686441,0"></path>
                </g>
            </g>
            <g id="Group" transform="translate(31.700924, 35.883696)" fill="#FFFFFF" fill-rule="nonzero">
                <path d="M25.2479261,25.2479261 L25.2479261,0 L14.7409529,0 C10.4030052,0 6.88593911,3.51706614 6.88593911,7.8550138 L6.88593911,25.2479261 C6.88593911,29.0505163 3.80336603,32.1338652 0,32.1338652 L32.1338652,32.1338652 C28.3312751,32.1338652 25.2479261,29.0505163 25.2479261,25.2479261" id="Path"></path>
            </g>
            <g id="Group" opacity="0.8" transform="translate(24.815761, 22.112593)" fill="#FFFFFF" fill-rule="nonzero">
                <g id="Shape">
                    <path d="M7.92484305,12.300033 C5.84315576,12.300033 4.15639164,10.612493 4.15639164,8.53158157 C4.15639164,6.44989429 5.84315576,4.76313016 7.92484305,4.76313016 C10.0057544,4.76313016 11.6932945,6.44989429 11.6932945,8.53158157 C11.6932945,10.612493 10.0057544,12.300033 7.92484305,12.300033 M24.2780756,0 L7.8550138,0 C3.51629026,0 0,3.51629026 0,7.8550138 L0,38.626433 C0,42.2280701 2.59144075,45.5100444 6.1752326,45.8692771 C10.2967096,46.2820455 13.7711023,43.0559345 13.7711023,39.0190285 L13.7711023,21.6261161 C13.7711023,17.2881685 17.2881685,13.7711023 21.6261161,13.7711023 L32.1330894,13.7711023 L32.1330894,7.8550138 C32.1330894,3.51629026 28.6160232,0 24.2780756,0"></path>
                </g>
            </g>
            <g id="Group" transform="translate(0.000000, 101.033602)" fill="#2B3992" fill-rule="nonzero">
                <polygon id="Path" points="0 18.5544054 0 0 4.12302878 0 4.12302878 14.8433691 12.8850468 14.8433691 12.8850468 18.5544054"></polygon>
            </g>
            <g id="Group" transform="translate(10.435592, 101.033602)" fill="#2B3992" fill-rule="nonzero">
                <polygon id="Path" points="-1.72280071e-15 0 4.48381319 0 8.58123792 6.39092737 12.6786626 0 17.1632517 0 10.6427523 9.84437131 10.6427523 18.5544054 6.51972353 18.5544054 6.51972353 9.84437131"></polygon>
            </g>
            <g id="Group" transform="translate(27.079780, 100.620834)" fill="#2B3992" fill-rule="nonzero">
                <path d="M10.0507555,3.71103625 C6.77809172,3.71103625 4.12380466,6.39092737 4.12380466,9.68919522 C4.12380466,12.9882389 6.77809172,15.6681301 10.0507555,15.6681301 C13.3234193,15.6681301 15.9777064,12.9882389 15.9777064,9.68919522 C15.9777064,6.39092737 13.3234193,3.71103625 10.0507555,3.71103625 M0,9.68919522 C0,4.32941298 4.48458907,0 10.0507555,0 C15.5913179,0 20.1007351,4.32941298 20.1007351,9.68919522 C20.1007351,15.0497533 15.5913179,19.3791663 10.0507555,19.3791663 C4.48458907,19.3791663 0,15.0497533 0,9.68919522" id="Shape"></path>
            </g>
            <g id="Group" transform="translate(48.981334, 101.033602)" fill="#2B3992" fill-rule="nonzero">
                <path d="M4.12302878,3.71103625 L4.12302878,8.65882596 L9.01961038,8.65882596 C10.1531717,8.65882596 11.3387171,7.55086866 11.3387171,6.18454317 C11.3387171,4.81899355 10.1531717,3.71103625 9.01961038,3.71103625 L4.12302878,3.71103625 Z M0,18.5544054 L0,0 L9.2252187,0 C12.6530586,0 15.4617459,2.75747916 15.4617459,6.18454317 C15.4617459,9.61238305 12.6530586,12.3698622 9.2252187,12.3698622 L4.12302878,12.3698622 L4.12302878,18.5544054 L0,18.5544054 Z" id="Shape"></path>
            </g>
            <g id="Group" transform="translate(63.152014, 101.033602)" fill="#2B3992" fill-rule="nonzero">
                <path d="M7.34448446,11.9570938 L12.6530586,11.9570938 L9.99877152,5.46297434 L7.34448446,11.9570938 Z M8.24683344,0 L11.7514855,0 L19.997543,18.5544054 L15.3585538,18.5544054 L13.9674001,15.1521696 L6.03014296,15.1521696 L4.63898929,18.5544054 L0,18.5544054 L8.24683344,0 Z" id="Shape"></path>
            </g>
            <g id="Group" transform="translate(79.667406, 101.033602)" fill="#2B3992" fill-rule="nonzero">
                <polygon id="Path" points="0 0 4.48381319 0 8.58123792 6.39092737 12.6786626 0 17.1632517 0 10.6427523 9.84437131 10.6427523 18.5544054 6.51972353 18.5544054 6.51972353 9.84437131"></polygon>
            </g>
        </g>
    </g>
</svg>