<svg width="60" height="61" viewBox="0 0 60 61" fill="none" xmlns="http://www.w3.org/2000/svg">
<path d="M59.4269 12.5119C59.2512 9.38259 57.9306 6.42768 55.7172 4.21141C53.5039 1.99513 50.5529 0.672755 47.4278 0.496758C35.7921 -0.16168 24.1286 -0.16168 12.493 0.496758C9.3678 0.672855 6.41681 1.99525 4.20341 4.21149C1.99 6.42772 0.669204 9.38257 0.493171 12.5119C-0.16439 24.1633 -0.16439 35.8426 0.493171 47.4939C0.669201 50.6233 1.98999 53.5782 4.2034 55.7944C6.4168 58.0107 9.36779 59.3331 12.493 59.5092C24.1286 60.1693 35.7922 60.1693 47.4278 59.5092C50.5529 59.3332 53.5039 58.0108 55.7172 55.7945C57.9306 53.5782 59.2512 50.6233 59.4269 47.4939C60.0845 35.8426 60.0845 24.1633 59.4269 12.5119Z" fill="url(#paint0_linear_5_759)"/>
<path d="M47.6873 38.2563H46.34V20.8454C46.34 19.2679 45.0618 17.9839 43.49 17.9839H38.4751C36.5406 15.393 33.466 13.7118 30 13.7118C26.5339 13.7118 23.4594 15.3988 21.5306 17.9839H16.5157C14.9439 17.9839 13.6657 19.2679 13.6657 20.8454V38.2621H12.3127C11.9039 38.2563 11.5757 38.5845 11.5757 38.9933V43.3057C11.5757 44.9524 12.9115 46.2882 14.5582 46.2882H45.4418C47.0885 46.2882 48.4242 44.9466 48.4242 43.3057V38.9933C48.4242 38.5845 48.096 38.2563 47.6873 38.2563ZM30 15.1857C35.0206 15.1857 39.1027 19.2736 39.1027 24.2942C39.1027 27.2997 37.6345 30.0691 35.176 31.7676H24.8297C22.3712 30.0691 20.903 27.2997 20.903 24.2942C20.8973 19.2679 24.9794 15.1857 30 15.1857ZM15.1339 20.8454C15.1339 20.0797 15.75 19.4579 16.51 19.4579H20.5979C19.8494 20.9088 19.4176 22.5497 19.4176 24.2942C19.4176 27.1442 20.5633 29.81 22.5324 31.7676H20.356H20.3503C19.9415 31.7676 19.6133 32.0957 19.6133 32.5045C19.6133 32.9133 19.9415 33.2415 20.3503 33.2415H20.356H39.6267C40.0354 33.2415 40.3636 32.9133 40.3636 32.5045C40.3636 32.0957 40.0354 31.7676 39.6267 31.7676H37.4503C39.4194 29.81 40.5651 27.1442 40.5651 24.2942C40.5651 22.5497 40.1333 20.9088 39.3848 19.4579H43.4727C44.2327 19.4579 44.8488 20.0797 44.8488 20.8454V38.2621H15.1339V20.8454ZM46.9503 43.3057C46.9503 44.1406 46.2709 44.8142 45.4418 44.8142H14.5582C13.7233 44.8142 13.0497 44.1348 13.0497 43.3057V39.7303H46.9503V43.3057Z" fill="#0A8EED"/>
<path d="M30.8061 41.5382H29.1939C28.7852 41.5382 28.457 41.8664 28.457 42.2751C28.457 42.6839 28.7852 43.0121 29.1939 43.0121H30.8061C31.2149 43.0121 31.543 42.6839 31.543 42.2751C31.543 41.8664 31.2149 41.5382 30.8061 41.5382ZM35.5158 25.0254H35.5791C35.9879 25.0254 36.2873 24.6973 36.2873 24.2885C36.2873 23.8797 35.9245 23.5515 35.5215 23.5515C35.1127 23.5515 34.7845 23.8797 34.7845 24.2885C34.7788 24.6915 35.1127 25.0254 35.5158 25.0254ZM24.4152 25.0254H24.4785C24.8873 25.0254 25.1867 24.6973 25.1867 24.2885C25.1867 23.8797 24.8239 23.5515 24.4209 23.5515C24.0121 23.5515 23.6839 23.8797 23.6839 24.2885C23.6782 24.6915 24.0121 25.0254 24.4152 25.0254ZM30 27.6567C29.2745 27.6567 28.6815 27.0636 28.6815 26.3382C28.6815 25.9294 28.3533 25.6012 27.9445 25.6012C27.5358 25.6012 27.2076 25.9294 27.2076 26.3382C27.2076 27.6221 28.0827 28.693 29.263 29.0154V29.3954C29.263 29.8042 29.5912 30.1324 30 30.1324C30.4088 30.1324 30.737 29.8042 30.737 29.3954V29.0212C31.9173 28.693 32.7924 27.6221 32.7924 26.3439C32.7924 24.8067 31.543 23.5515 30 23.5515C29.2745 23.5515 28.6815 22.9585 28.6815 22.233C28.6815 21.5076 29.2745 20.9145 30 20.9145C30.7255 20.9145 31.3185 21.5076 31.3185 22.233C31.3185 22.6418 31.6467 22.97 32.0555 22.97C32.4642 22.97 32.7924 22.6418 32.7924 22.233C32.7924 20.9491 31.9173 19.8782 30.737 19.5558V19.1758C30.737 18.767 30.4088 18.4388 30 18.4388C29.5912 18.4388 29.263 18.767 29.263 19.1758V19.5558C28.0827 19.8839 27.2076 20.9548 27.2076 22.233C27.2076 23.7703 28.457 25.0254 30 25.0254C30.7255 25.0254 31.3185 25.6185 31.3185 26.3439C31.3127 27.0636 30.7255 27.6567 30 27.6567Z" fill="#0A8EED"/>
<defs>
<linearGradient id="paint0_linear_5_759" x1="29.9601" y1="-0.229236" x2="29.9601" y2="58.9499" gradientUnits="userSpaceOnUse">
<stop stop-color="#E8F5FF"/>
<stop offset="1" stop-color="#B4DFFF"/>
</linearGradient>
</defs>
</svg>
