<svg width="60" height="61" viewBox="0 0 60 61" fill="none" xmlns="http://www.w3.org/2000/svg">
<path d="M59.4269 12.509C59.2512 9.37966 57.9306 6.42475 55.7172 4.20848C53.5039 1.99221 50.5529 0.669825 47.4278 0.493828C35.7921 -0.164609 24.1286 -0.164609 12.493 0.493828C9.3678 0.669925 6.41681 1.99232 4.20341 4.20856C1.99 6.42479 0.669204 9.37964 0.493171 12.509C-0.16439 24.1604 -0.16439 35.8396 0.493171 47.491C0.669201 50.6204 1.98999 53.5752 4.2034 55.7915C6.4168 58.0077 9.36779 59.3302 12.493 59.5063C24.1286 60.1664 35.7922 60.1664 47.4278 59.5063C50.5529 59.3303 53.5039 58.0079 55.7172 55.7916C57.9306 53.5753 59.2512 50.6203 59.4269 47.491C60.0845 35.8396 60.0845 24.1604 59.4269 12.509Z" fill="url(#paint0_linear_5_728)"/>
<path d="M26.5 35.5015C21 37.0015 15.896 34.9453 12.8989 30.106C9.83795 25.2032 10.5394 18.8995 14.5569 14.7609C18.5743 10.6857 24.8875 9.79438 29.8614 12.7235C34.7717 15.6522 37 21.0015 35.5 26.5015" stroke="#0A8EED" stroke-width="1.5" stroke-linecap="round" stroke-linejoin="round"/>
<path d="M26.0301 20.8506C26.0301 22.2073 24.909 23.3278 23.5519 23.3278C22.1947 23.3278 21.0736 22.2073 21.0736 20.8506C21.0736 19.4351 22.1947 18.3735 23.5519 18.3735C24.909 18.3735 26.0301 19.4351 26.0301 20.8506Z" fill="#0A8EED"/>
<path d="M43.9676 42.791C42.2564 44.973 39.5422 45.7988 37.064 44.7961C34.5858 43.8526 32.9336 41.2573 32.8746 38.3675C32.8156 35.4775 34.3498 32.8234 36.769 31.7029C39.1291 30.5823 41.9614 31.2309 43.7315 33.2954M41.4303 37.0111H30.9865M40.3682 39.9599H30.9865M18.5954 23.8586V28.8128H28.5082V23.8586M26.0301 20.8506C26.0301 22.2073 24.909 23.3278 23.5519 23.3278C22.1947 23.3278 21.0736 22.2073 21.0736 20.8506C21.0736 19.4351 22.1947 18.3735 23.5519 18.3735C24.909 18.3735 26.0301 19.4351 26.0301 20.8506Z" stroke="#0A8EED" stroke-width="1.5" stroke-linecap="round" stroke-linejoin="round"/>
<path d="M49.7501 38.1906C49.7501 44.5604 44.5577 49.7503 38.1851 49.7503C31.8126 49.7503 26.6202 44.5604 26.6202 38.1906C26.6202 31.8208 31.8126 26.6309 38.1851 26.6309C44.5577 26.6309 49.7501 31.8208 49.7501 38.1906Z" stroke="#0A8EED" stroke-width="1.5" stroke-linecap="round" stroke-linejoin="round"/>
<defs>
<linearGradient id="paint0_linear_5_728" x1="29.9601" y1="-0.232166" x2="29.9601" y2="58.947" gradientUnits="userSpaceOnUse">
<stop stop-color="#E8F5FF"/>
<stop offset="1" stop-color="#B4DFFF"/>
</linearGradient>
</defs>
</svg>
