<svg width="60" height="62" viewBox="0 0 60 62" fill="none" xmlns="http://www.w3.org/2000/svg">
<circle cx="30" cy="31.0029" r="30" fill="#D9DEFF"/>
<path d="M59.4269 12.5105C59.2512 9.38112 57.9306 6.42622 55.7172 4.20994C53.5039 1.99367 50.5529 0.67129 47.4278 0.495293C35.7921 -0.163145 24.1286 -0.163145 12.493 0.495293C9.3678 0.67139 6.41681 1.99378 4.20341 4.21002C1.99 6.42626 0.669204 9.3811 0.493171 12.5105C-0.16439 24.1618 -0.16439 35.8411 0.493171 47.4925C0.669201 50.6218 1.98999 53.5767 4.2034 55.793C6.4168 58.0092 9.36779 59.3316 12.493 59.5078C24.1286 60.1678 35.7922 60.1678 47.4278 59.5078C50.5529 59.3317 53.5039 58.0093 55.7172 55.793C57.9306 53.5767 59.2512 50.6218 59.4269 47.4925C60.0845 35.8411 60.0845 24.1618 59.4269 12.5105Z" fill="url(#paint0_linear_5_749)"/>
<g clip-path="url(#clip0_5_749)">
<path d="M21.2051 12.0029C15.5778 12.0029 11 16.5807 11 22.208C11 27.8353 15.5778 32.4131 21.2051 32.4131C26.8323 32.4131 31.4102 27.8353 31.4102 22.208C31.4102 16.5807 26.8323 12.0029 21.2051 12.0029ZM21.2051 31.2998C19.4069 31.2998 17.6491 30.7666 16.1539 29.7676C14.6588 28.7685 13.4935 27.3486 12.8054 25.6873C12.1172 24.026 11.9372 22.1979 12.288 20.4343C12.6388 18.6707 13.5047 17.0506 14.7762 15.7791C16.0477 14.5076 17.6677 13.6417 19.4314 13.2909C21.195 12.9401 23.023 13.1201 24.6844 13.8083C26.3457 14.4964 27.7656 15.6617 28.7646 17.1569C29.7637 18.652 30.2969 20.4098 30.2969 22.208C30.2943 24.6185 29.3356 26.9296 27.6311 28.6341C25.9266 30.3385 23.6156 31.2973 21.2051 31.2998ZM38.7949 29.5928C33.1677 29.5928 28.5898 34.1706 28.5898 39.7979C28.5898 45.4251 33.1677 50.0029 38.7949 50.0029C44.4222 50.0029 49 45.4251 49 39.7979C49 34.1706 44.4222 29.5928 38.7949 29.5928ZM38.7949 48.8896C36.9967 48.8896 35.2389 48.3564 33.7438 47.3574C32.2487 46.3584 31.0833 44.9384 30.3952 43.2771C29.7071 41.6158 29.527 39.7878 29.8778 38.0241C30.2286 36.2605 31.0945 34.6405 32.3661 33.369C33.6376 32.0975 35.2576 31.2316 37.0212 30.8808C38.7848 30.5299 40.6129 30.71 42.2742 31.3981C43.9355 32.0863 45.3555 33.2516 46.3545 34.7467C47.3535 36.2419 47.8867 37.9997 47.8867 39.7979C47.8842 42.2084 46.9255 44.5194 45.221 46.2239C43.5165 47.9284 41.2054 48.8871 38.7949 48.8896Z" fill="#0A8EED"/>
<path d="M24.7305 19.9814C24.7296 19.3838 24.5368 18.8023 24.1804 18.3226C23.824 17.8429 23.323 17.4904 22.7511 17.317V16.2705C22.7511 16.1229 22.6924 15.9813 22.588 15.8769C22.4836 15.7725 22.342 15.7139 22.1944 15.7139C22.0468 15.7139 21.9052 15.7725 21.8008 15.8769C21.6964 15.9813 21.6378 16.1229 21.6378 16.2705V17.1982H20.7724V16.2705C20.7724 16.1229 20.7137 15.9813 20.6094 15.8769C20.505 15.7725 20.3634 15.7139 20.2157 15.7139C20.0681 15.7139 19.9265 15.7725 19.8221 15.8769C19.7178 15.9813 19.6591 16.1229 19.6591 16.2705V17.1982H18.2363C18.0887 17.1982 17.9471 17.2569 17.8427 17.3613C17.7383 17.4657 17.6797 17.6073 17.6797 17.7549C17.6797 17.9025 17.7383 18.0441 17.8427 18.1485C17.9471 18.2529 18.0887 18.3115 18.2363 18.3115H19.1641V21.6514H18.2363C18.0887 21.6514 17.9471 21.71 17.8427 21.8144C17.7383 21.9188 17.6797 22.0604 17.6797 22.208C17.6797 22.3556 17.7383 22.4972 17.8427 22.6016C17.9471 22.706 18.0887 22.7646 18.2363 22.7646H19.1641V26.1045H18.2363C18.0887 26.1045 17.9471 26.1631 17.8427 26.2675C17.7383 26.3719 17.6797 26.5135 17.6797 26.6611C17.6797 26.8088 17.7383 26.9503 17.8427 27.0547C17.9471 27.1591 18.0887 27.2178 18.2363 27.2178H19.6591V28.1455C19.6591 28.2931 19.7178 28.4347 19.8221 28.5391C19.9265 28.6435 20.0681 28.7021 20.2157 28.7021C20.3634 28.7021 20.505 28.6435 20.6094 28.5391C20.7137 28.4347 20.7724 28.2931 20.7724 28.1455V27.2178H21.6378V28.1455C21.6378 28.2931 21.6964 28.4347 21.8008 28.5391C21.9052 28.6435 22.0468 28.7021 22.1944 28.7021C22.342 28.7021 22.4836 28.6435 22.588 28.5391C22.6924 28.4347 22.7511 28.2931 22.7511 28.1455V27.099C23.244 26.9506 23.6861 26.6683 24.0281 26.2836C24.3702 25.8989 24.5988 25.4268 24.6886 24.9199C24.7783 24.413 24.7257 23.8912 24.5366 23.4124C24.3474 22.9336 24.0292 22.5167 23.6172 22.208C23.9629 21.9488 24.2435 21.6126 24.4367 21.2262C24.63 20.8397 24.7305 20.4135 24.7305 19.9814ZM23.6172 24.4346C23.6168 24.8773 23.4407 25.3019 23.1276 25.6149C22.8146 25.928 22.39 26.1041 21.9473 26.1045H20.2773V22.7646H21.9473C22.39 22.765 22.8146 22.9411 23.1276 23.2542C23.4407 23.5673 23.6168 23.9918 23.6172 24.4346ZM21.9473 21.6514H20.2773V18.3115H21.9473C22.3902 18.3115 22.8149 18.4875 23.1281 18.8006C23.4413 19.1138 23.6172 19.5386 23.6172 19.9814C23.6172 20.4243 23.4413 20.8491 23.1281 21.1623C22.8149 21.4754 22.3902 21.6514 21.9473 21.6514ZM39.8451 39.2412H37.7447C37.5633 39.2454 37.3828 39.2134 37.2139 39.1468C37.045 39.0803 36.8911 38.9807 36.7612 38.8539C36.6314 38.727 36.5282 38.5755 36.4578 38.4082C36.3873 38.2409 36.351 38.0612 36.351 37.8797C36.351 37.6981 36.3873 37.5184 36.4578 37.3512C36.5282 37.1839 36.6314 37.0323 36.7612 36.9055C36.8911 36.7786 37.045 36.679 37.2139 36.6125C37.3828 36.546 37.5633 36.5139 37.7447 36.5181H41.1699C41.3176 36.5181 41.4591 36.4595 41.5635 36.3551C41.6679 36.2507 41.7266 36.1091 41.7266 35.9615C41.7266 35.8139 41.6679 35.6723 41.5635 35.5679C41.4591 35.4635 41.3176 35.4048 41.1699 35.4048H40.2422V34.0459C40.2422 33.8983 40.1835 33.7567 40.0792 33.6523C39.9748 33.5479 39.8332 33.4893 39.6856 33.4893C39.5379 33.4893 39.3963 33.5479 39.2919 33.6523C39.1876 33.7567 39.1289 33.8983 39.1289 34.0459V35.4078H38.4609V34.0459C38.4609 33.8983 38.4023 33.7567 38.2979 33.6523C38.1935 33.5479 38.0519 33.4893 37.9043 33.4893C37.7567 33.4893 37.6151 33.5479 37.5107 33.6523C37.4063 33.7567 37.3477 33.8983 37.3477 34.0459V35.4397C36.7382 35.5441 36.1898 35.8729 35.8106 36.3613C35.4313 36.8497 35.2486 37.4624 35.2984 38.0787C35.3482 38.6951 35.6269 39.2705 36.0797 39.6916C36.5324 40.1128 37.1264 40.3493 37.7447 40.3545H39.8451C40.0266 40.3503 40.2071 40.3823 40.376 40.4489C40.5449 40.5154 40.6988 40.615 40.8286 40.7418C40.9585 40.8687 41.0616 41.0202 41.1321 41.1875C41.2025 41.3548 41.2388 41.5345 41.2388 41.716C41.2388 41.8976 41.2025 42.0773 41.1321 42.2446C41.0616 42.4118 40.9585 42.5634 40.8286 42.6902C40.6988 42.8171 40.5449 42.9167 40.376 42.9832C40.2071 43.0497 40.0266 43.0818 39.8451 43.0776H36.4199C36.2723 43.0776 36.1307 43.1362 36.0263 43.2406C35.9219 43.345 35.8633 43.4866 35.8633 43.6342C35.8633 43.7818 35.9219 43.9234 36.0263 44.0278C36.1307 44.1322 36.2723 44.1909 36.4199 44.1909H37.3477V45.5498C37.3477 45.6974 37.4063 45.839 37.5107 45.9434C37.6151 46.0478 37.7567 46.1064 37.9043 46.1064C38.0519 46.1064 38.1935 46.0478 38.2979 45.9434C38.4023 45.839 38.4609 45.6974 38.4609 45.5498V44.1909H39.1289V45.5498C39.1289 45.6974 39.1876 45.839 39.2919 45.9434C39.3963 46.0478 39.5379 46.1064 39.6856 46.1064C39.8332 46.1064 39.9748 46.0478 40.0792 45.9434C40.1835 45.839 40.2422 45.6974 40.2422 45.5498V44.1589C40.8553 44.0584 41.4082 43.7308 41.7911 43.2414C42.1739 42.752 42.3586 42.1365 42.3086 41.5172C42.2586 40.8979 41.9775 40.32 41.5211 39.8983C41.0647 39.4767 40.4665 39.2421 39.8451 39.2412ZM34.3151 19.0537H39.8815C40.521 19.0545 41.1341 19.3089 41.5862 19.7611C42.0384 20.2133 42.2928 20.8263 42.2936 21.4658V25.7995L40.62 24.1258C40.515 24.0215 40.373 23.9631 40.225 23.9635C40.0771 23.964 39.9353 24.0231 39.831 24.128C39.7267 24.233 39.6683 24.375 39.6687 24.523C39.6692 24.6709 39.7283 24.8127 39.8332 24.917L42.4569 27.5406C42.5086 27.5924 42.57 27.6334 42.6375 27.6614C42.7051 27.6894 42.7775 27.7038 42.8506 27.7038C42.9237 27.7038 42.9962 27.6894 43.0637 27.6614C43.1313 27.6334 43.1926 27.5924 43.2443 27.5406L45.868 24.917C45.9212 24.8657 45.9636 24.8043 45.9928 24.7364C46.022 24.6685 46.0374 24.5954 46.0381 24.5215C46.0387 24.4476 46.0247 24.3743 45.9967 24.3059C45.9688 24.2375 45.9275 24.1753 45.8752 24.123C45.823 24.0707 45.7609 24.0294 45.6925 24.0013C45.6241 23.9733 45.5508 23.9592 45.4769 23.9598C45.403 23.9604 45.3299 23.9757 45.262 24.0049C45.1941 24.034 45.1326 24.0764 45.0813 24.1295L43.4069 25.8032V21.4658C43.4059 20.5311 43.0342 19.635 42.3732 18.9741C41.7123 18.3132 40.8162 17.9414 39.8815 17.9404H34.3151C34.1675 17.9404 34.0259 17.9991 33.9215 18.1035C33.8171 18.2079 33.7584 18.3494 33.7584 18.4971C33.7584 18.6447 33.8171 18.7863 33.9215 18.8907C34.0259 18.9951 34.1675 19.0537 34.3151 19.0537ZM25.6849 42.9521H20.1185C19.479 42.9514 18.866 42.697 18.4138 42.2448C17.9616 41.7926 17.7072 41.1795 17.7064 40.54V36.2064L19.38 37.88C19.4314 37.9332 19.4929 37.9756 19.5608 38.0047C19.6287 38.0338 19.7018 38.0492 19.7757 38.0498C19.8496 38.0504 19.9229 38.0363 19.9913 38.0082C20.0597 37.9802 20.1218 37.9389 20.174 37.8866C20.2263 37.8343 20.2676 37.7721 20.2955 37.7037C20.3235 37.6353 20.3375 37.562 20.3369 37.488C20.3362 37.4141 20.3208 37.3411 20.2916 37.2732C20.2624 37.2053 20.22 37.1439 20.1668 37.0926L17.5431 34.4689C17.4914 34.4172 17.4301 34.3762 17.3625 34.3482C17.2949 34.3202 17.2225 34.3058 17.1494 34.3058C17.0763 34.3058 17.0039 34.3202 16.9363 34.3482C16.8687 34.3762 16.8074 34.4172 16.7557 34.4689L14.132 37.0926C14.0788 37.1439 14.0364 37.2053 14.0072 37.2732C13.978 37.3411 13.9626 37.4141 13.9619 37.488C13.9613 37.562 13.9753 37.6353 14.0033 37.7037C14.0312 37.7721 14.0725 37.8343 14.1248 37.8866C14.177 37.9389 14.2391 37.9802 14.3075 38.0082C14.3759 38.0363 14.4492 38.0504 14.5231 38.0498C14.597 38.0492 14.6701 38.0338 14.738 38.0047C14.8059 37.9756 14.8674 37.9332 14.9188 37.88L16.5931 36.2064V40.54C16.5941 41.4747 16.9659 42.3709 17.6268 43.0318C18.2877 43.6927 19.1838 44.0644 20.1185 44.0654H25.6849C25.8326 44.0654 25.9741 44.0068 26.0785 43.9024C26.1829 43.798 26.2416 43.6564 26.2416 43.5088C26.2416 43.3612 26.1829 43.2196 26.0785 43.1152C25.9741 43.0108 25.8326 42.9521 25.6849 42.9521Z" fill="#0A8EED"/>
</g>
<defs>
<linearGradient id="paint0_linear_5_749" x1="29.9601" y1="-0.230701" x2="29.9601" y2="58.9485" gradientUnits="userSpaceOnUse">
<stop stop-color="#E8F5FF"/>
<stop offset="1" stop-color="#B4DFFF"/>
</linearGradient>
<clipPath id="clip0_5_749">
<rect width="38" height="38" fill="white" transform="translate(11 12.0029)"/>
</clipPath>
</defs>
</svg>
