<svg width="27" height="27" viewBox="0 0 27 27" fill="none" xmlns="http://www.w3.org/2000/svg">
<path d="M18.8586 0H8.24686C3.85836 0 0.300781 3.55758 0.300781 7.94608V18.5579C0.300781 22.9464 3.85836 26.5039 8.24686 26.5039H18.8586C23.2471 26.5039 26.8047 22.9464 26.8047 18.5579V7.94608C26.8047 3.55758 23.2471 0 18.8586 0Z" fill="white" fill-opacity="0.2"/>
<path d="M20.5676 13.252C20.5676 9.37926 17.4246 6.23621 13.5519 6.23621C9.67919 6.23621 6.53613 9.37926 6.53613 13.252C6.53613 16.6476 8.94955 19.4749 12.1487 20.1274V15.3567H10.7456V13.252H12.1487V11.498C12.1487 10.144 13.2502 9.04251 14.6042 9.04251H16.3582V11.1472H14.955C14.5692 11.1472 14.2535 11.4629 14.2535 11.8488V13.252H16.3582V15.3567H14.2535V20.2326C17.7964 19.8818 20.5676 16.8931 20.5676 13.252Z" fill="#F6F9FC"/>
</svg>
