<svg width="70" height="69" viewBox="0 0 70 69" fill="none" xmlns="http://www.w3.org/2000/svg">
<ellipse cx="35.1373" cy="34.3227" rx="34.2272" ry="34.3227" fill="url(#paint0_linear_5_326)"/>
<path d="M50.6957 34.3228C50.6957 25.7109 43.7258 18.7216 35.1379 18.7216C26.55 18.7216 19.5801 25.7109 19.5801 34.3228C19.5801 41.8738 24.932 48.1611 32.0263 49.612V39.0031H28.9148V34.3228H32.0263V30.4225C32.0263 27.4114 34.4689 24.962 37.4715 24.962H41.361V29.6424H38.2494C37.3938 29.6424 36.6937 30.3445 36.6937 31.2025V34.3228H41.361V39.0031H36.6937V49.846C44.5503 49.0659 50.6957 42.4198 50.6957 34.3228Z" fill="url(#paint1_linear_5_326)"/>
<defs>
<linearGradient id="paint0_linear_5_326" x1="35.1373" y1="-0.265612" x2="35.1373" y2="67.4391" gradientUnits="userSpaceOnUse">
<stop stop-color="#E8F5FF"/>
<stop offset="1" stop-color="#B4DFFF"/>
</linearGradient>
<linearGradient id="paint1_linear_5_326" x1="35.1379" y1="18.3639" x2="35.1379" y2="53.4039" gradientUnits="userSpaceOnUse">
<stop stop-color="#217CF0"/>
<stop offset="1" stop-color="#01ACF1"/>
</linearGradient>
</defs>
</svg>
