<svg width="69" height="70" viewBox="0 0 69 70" fill="none" xmlns="http://www.w3.org/2000/svg">
<ellipse cx="34.2728" cy="34.9681" rx="34.2728" ry="34.3227" fill="url(#paint0_linear_5_329)"/>
<path d="M42.9209 49.2567H24.3809C21.9329 49.2567 19.9414 47.2666 19.9414 44.82V26.2998C19.9414 23.8532 21.9329 21.863 24.3809 21.863H42.9209C45.3682 21.863 47.3596 23.8532 47.3596 26.2998V44.8207C47.3596 47.2673 45.3682 49.2567 42.9209 49.2567ZM29.1417 27.533H38.342C40.2963 27.533 41.8806 29.1196 41.8806 31.0767V40.2904C41.8806 42.2475 40.2963 43.8341 38.342 43.8341H29.1417C27.1874 43.8341 25.6031 42.2475 25.6031 40.2904V31.0767C25.6031 29.1196 27.1874 27.533 29.1417 27.533ZM29.1417 25.4068C26.0148 25.4068 23.48 27.9453 23.48 31.0767V40.2904C23.48 43.4218 26.0148 45.9604 29.1417 45.9604H38.342C41.4689 45.9604 44.0037 43.4218 44.0037 40.2904V31.0767C44.0037 27.9453 41.4689 25.4068 38.342 25.4068H29.1417ZM33.7418 40.6448C36.4779 40.6448 38.6958 38.4236 38.6958 35.6836C38.6958 32.9436 36.4779 30.7223 33.7418 30.7223C31.0058 30.7223 28.7878 32.9436 28.7878 35.6836C28.7878 38.4236 31.0058 40.6448 33.7418 40.6448ZM33.7418 38.5185C32.1784 38.5185 30.911 37.2493 30.911 35.6836C30.911 34.1178 32.1784 32.8486 33.7418 32.8486C35.3053 32.8486 36.5727 34.1178 36.5727 35.6836C36.5727 37.2493 35.3053 38.5185 33.7418 38.5185ZM39.0497 31.7855C39.8314 31.7855 40.4651 31.1508 40.4651 30.368C40.4651 29.5851 39.8314 28.9505 39.0497 28.9505C38.268 28.9505 37.6343 29.5851 37.6343 30.368C37.6343 31.1508 38.268 31.7855 39.0497 31.7855Z" fill="url(#paint1_linear_5_329)"/>
<defs>
<linearGradient id="paint0_linear_5_329" x1="34.2728" y1="0.379774" x2="34.2728" y2="68.0845" gradientUnits="userSpaceOnUse">
<stop stop-color="#E8F5FF"/>
<stop offset="1" stop-color="#B4DFFF"/>
</linearGradient>
<linearGradient id="paint1_linear_5_329" x1="33.6505" y1="21.5483" x2="33.6505" y2="52.3882" gradientUnits="userSpaceOnUse">
<stop stop-color="#217CF0"/>
<stop offset="1" stop-color="#01ACF1"/>
</linearGradient>
</defs>
</svg>
