<svg width="28" height="27" viewBox="0 0 28 27" fill="none" xmlns="http://www.w3.org/2000/svg">
<path d="M19.155 0H8.54325C4.15475 0 0.597168 3.55758 0.597168 7.94608V18.5579C0.597168 22.9464 4.15475 26.5039 8.54325 26.5039H19.155C23.5435 26.5039 27.1011 22.9464 27.1011 18.5579V7.94608C27.1011 3.55758 23.5435 0 19.155 0Z" fill="white" fill-opacity="0.2"/>
<path d="M18.6042 20.2348H9.11617C7.86339 20.2348 6.84424 19.2178 6.84424 17.9675V8.50344C6.84424 7.2532 7.86339 6.23621 9.11617 6.23621H18.6042C19.8566 6.23621 20.8757 7.2532 20.8757 8.50344V17.9679C20.8757 19.2181 19.8566 20.2348 18.6042 20.2348ZM11.5526 9.13363H16.2609C17.261 9.13363 18.0718 9.9444 18.0718 10.9445V15.6528C18.0718 16.653 17.261 17.4637 16.2609 17.4637H11.5526C10.5524 17.4637 9.74167 16.653 9.74167 15.6528V10.9445C9.74167 9.9444 10.5524 9.13363 11.5526 9.13363ZM11.5526 8.0471C9.95235 8.0471 8.65513 9.34432 8.65513 10.9445V15.6528C8.65513 17.2531 9.95235 18.5503 11.5526 18.5503H16.2609C17.8611 18.5503 19.1583 17.2531 19.1583 15.6528V10.9445C19.1583 9.34432 17.8611 8.0471 16.2609 8.0471H11.5526ZM13.9067 15.8339C15.3069 15.8339 16.442 14.6989 16.442 13.2987C16.442 11.8985 15.3069 10.7634 13.9067 10.7634C12.5065 10.7634 11.3715 11.8985 11.3715 13.2987C11.3715 14.6989 12.5065 15.8339 13.9067 15.8339ZM13.9067 14.7474C13.1066 14.7474 12.458 14.0988 12.458 13.2987C12.458 12.4986 13.1066 11.85 13.9067 11.85C14.7068 11.85 15.3554 12.4986 15.3554 13.2987C15.3554 14.0988 14.7068 14.7474 13.9067 14.7474ZM16.6231 11.3067C17.0231 11.3067 17.3474 10.9824 17.3474 10.5823C17.3474 10.1823 17.0231 9.85799 16.6231 9.85799C16.223 9.85799 15.8987 10.1823 15.8987 10.5823C15.8987 10.9824 16.223 11.3067 16.6231 11.3067Z" fill="#F6F9FC"/>
</svg>
