<svg width="27" height="27" viewBox="0 0 27 27" fill="none" xmlns="http://www.w3.org/2000/svg">
<path d="M19.0544 0H8.44267C4.05416 0 0.496582 3.55758 0.496582 7.94608V18.5579C0.496582 22.9464 4.05416 26.5039 8.44267 26.5039H19.0544C23.4429 26.5039 27.0005 22.9464 27.0005 18.5579V7.94608C27.0005 3.55758 23.4429 0 19.0544 0Z" fill="white" fill-opacity="0.2"/>
<path d="M19.0626 7.01575H8.43282C7.9238 7.01575 7.51123 7.4157 7.51123 7.90933V18.5942C7.51123 19.0878 7.92393 19.4882 8.43282 19.4882H19.0626C19.5717 19.4882 19.9837 19.0877 19.9837 18.5942V7.90933C19.9837 7.41584 19.5717 7.01575 19.0626 7.01575ZM11.2925 17.456H9.40803V11.8248H11.2925V17.456ZM10.3504 11.0556H10.3378C9.70585 11.0556 9.2962 10.6233 9.2962 10.0823C9.2962 9.53033 9.71791 9.10987 10.3623 9.10987C11.0069 9.10987 11.4034 9.53019 11.4158 10.0823C11.4158 10.6235 11.007 11.0556 10.3504 11.0556ZM18.0856 17.456H16.2017V14.4432C16.2017 13.686 15.9287 13.1695 15.2474 13.1695C14.7262 13.1695 14.4169 13.518 14.2811 13.8544C14.2306 13.9747 14.2183 14.1426 14.2183 14.3106V17.4559H12.3347C12.3347 17.4559 12.3593 12.3528 12.3347 11.8247H14.2184V12.6231C14.4686 12.2395 14.9154 11.6922 15.9159 11.6922C17.1559 11.6922 18.0856 12.4966 18.0856 14.227V17.456ZM14.2062 12.641C14.2096 12.6357 14.214 12.6292 14.2184 12.6231V12.641H14.2062Z" fill="#F6F9FC"/>
</svg>
