<svg width="69" height="69" viewBox="0 0 69 69" fill="none" xmlns="http://www.w3.org/2000/svg">
<ellipse cx="34.6822" cy="34.3227" rx="34.2272" ry="34.3227" fill="url(#paint0_linear_5_323)"/>
<path fill-rule="evenodd" clip-rule="evenodd" d="M46.1529 19.8947H23.0135C20.8222 19.8947 19.0254 21.6346 19.0254 23.7561V46.1609C19.0254 48.2823 20.8222 50.0224 23.0135 50.0224H46.1528C48.3444 50.0224 50.141 48.2824 50.141 46.1609V23.7561C50.141 21.6346 48.3444 19.8947 46.1529 19.8947ZM29.7214 34.4446V43.7457H25.5078V32.0085H29.7214V34.4446ZM27.6062 30.2591C26.4339 30.2591 25.4828 29.3388 25.4828 28.2031C25.4828 27.0672 26.4339 26.1481 27.6062 26.1481C28.78 26.1481 29.7303 27.0673 29.7303 28.2031C29.7303 29.3388 28.7801 30.2591 27.6062 30.2591ZM43.6586 37.3436V43.7457H40.0284V38.0445C40.0284 36.6794 39.8758 34.9235 37.9434 34.9235C35.9817 34.9235 35.6852 36.4098 35.6852 37.9461V43.7457H32.1847V32.0085H35.5555V33.5776H35.5915C36.0942 32.6989 37.326 32.0072 39.1601 32.0072C42.2504 32.0072 43.3005 33.4222 43.5879 35.6359C43.6561 36.1554 43.6824 36.716 43.6824 37.3436H43.6586Z" fill="url(#paint1_linear_5_323)"/>
<defs>
<linearGradient id="paint0_linear_5_323" x1="34.6822" y1="-0.265612" x2="34.6822" y2="67.4391" gradientUnits="userSpaceOnUse">
<stop stop-color="#E8F5FF"/>
<stop offset="1" stop-color="#B4DFFF"/>
</linearGradient>
<linearGradient id="paint1_linear_5_323" x1="34.5832" y1="19.5485" x2="34.5832" y2="53.4664" gradientUnits="userSpaceOnUse">
<stop stop-color="#217CF0"/>
<stop offset="1" stop-color="#01ACF1"/>
</linearGradient>
</defs>
</svg>
