<svg width="64" height="65" viewBox="0 0 64 65" fill="none" xmlns="http://www.w3.org/2000/svg">
<path d="M63.4732 13.8173C63.2855 10.4749 61.875 7.31881 59.511 4.95163C57.1469 2.58446 53.995 1.17204 50.6571 0.984056C38.2292 0.280787 25.7715 0.280787 13.3436 0.984056C10.0056 1.17214 6.85373 2.58458 4.48961 4.95172C2.12549 7.31885 0.714769 10.4749 0.52675 13.8173C-0.175583 26.262 -0.175583 38.7365 0.52675 51.1812C0.714766 54.5237 2.12549 57.6797 4.4896 60.0469C6.85371 62.414 10.0056 63.8265 13.3436 64.0146C25.7715 64.7197 38.2292 64.7197 50.6571 64.0146C53.995 63.8266 57.1469 62.4142 59.511 60.047C61.875 57.6798 63.2855 54.5236 63.4732 51.1812C64.1756 38.7365 64.1756 26.262 63.4732 13.8173Z" fill="url(#paint0_linear_175_2245)"/>
<g clip-path="url(#clip0_175_2245)">
<path d="M43.8359 39.1484C43.8359 38.9599 43.761 38.7791 43.6277 38.6457C43.4944 38.5124 43.3136 38.4375 43.125 38.4375H24.0861C24.0191 38.4373 23.9535 38.4182 23.8969 38.3823C23.8403 38.3465 23.795 38.2954 23.7662 38.2349C23.6947 38.0939 23.6574 37.938 23.6574 37.7799C23.6574 37.6218 23.6947 37.4659 23.7662 37.3249C23.7949 37.2676 23.8399 37.2202 23.8956 37.1885C23.9513 37.1569 24.0151 37.1425 24.079 37.1472H25.4511C25.5611 37.147 25.6695 37.1213 25.7679 37.0722C25.8662 37.023 25.9519 36.9517 26.018 36.8638C26.0842 36.776 26.129 36.674 26.1491 36.5659C26.1691 36.4577 26.1638 36.3464 26.1336 36.2407L21.74 20.8987V20.8525C21.6401 20.5903 21.4636 20.3644 21.2334 20.2039C21.0033 20.0435 20.7302 19.9561 20.4496 19.9531H16.8203C16.6318 19.9531 16.4509 20.028 16.3176 20.1614C16.1843 20.2947 16.1094 20.4755 16.1094 20.6641C16.1094 20.8526 16.1843 21.0334 16.3176 21.1668C16.4509 21.3001 16.6318 21.375 16.8203 21.375H20.3963L24.4949 35.7288H24.0683C23.7554 35.7241 23.4469 35.8039 23.1755 35.9596C22.904 36.1154 22.6795 36.3414 22.5256 36.6139C22.3302 36.9715 22.2278 37.3724 22.2278 37.7799C22.2278 38.1873 22.3302 38.5883 22.5256 38.9458C22.6784 39.2253 22.9043 39.458 23.1792 39.6189C23.4541 39.7798 23.7676 39.863 24.0861 39.8594H43.125C43.3136 39.8594 43.4944 39.7845 43.6277 39.6511C43.761 39.5178 43.8359 39.337 43.8359 39.1484ZM27.1289 41.2812C26.5665 41.2812 26.0167 41.448 25.549 41.7605C25.0814 42.073 24.7169 42.5171 24.5016 43.0367C24.2864 43.5564 24.2301 44.1282 24.3398 44.6798C24.4495 45.2314 24.7204 45.7381 25.1181 46.1358C25.5158 46.5335 26.0225 46.8044 26.5741 46.9141C27.1258 47.0238 27.6975 46.9675 28.2172 46.7523C28.7368 46.537 29.1809 46.1726 29.4934 45.7049C29.8059 45.2373 29.9727 44.6874 29.9727 44.125C29.9727 43.3708 29.673 42.6475 29.1397 42.1142C28.6064 41.5809 27.8831 41.2812 27.1289 41.2812ZM27.1289 45.5469C26.8477 45.5469 26.5728 45.4635 26.339 45.3072C26.1051 45.151 25.9229 44.9289 25.8153 44.6691C25.7076 44.4093 25.6795 44.1234 25.7344 43.8476C25.7892 43.5718 25.9246 43.3184 26.1235 43.1196C26.3223 42.9207 26.5757 42.7853 26.8515 42.7304C27.1273 42.6756 27.4132 42.7037 27.673 42.8114C27.9328 42.919 28.1549 43.1012 28.3112 43.335C28.4674 43.5689 28.5508 43.8438 28.5508 44.125C28.5508 44.5021 28.401 44.8638 28.1343 45.1304C27.8677 45.3971 27.506 45.5469 27.1289 45.5469ZM38.8594 41.2812C38.2969 41.2812 37.7471 41.448 37.2795 41.7605C36.8118 42.073 36.4473 42.5171 36.2321 43.0367C36.0169 43.5564 35.9605 44.1282 36.0703 44.6798C36.18 45.2314 36.4508 45.7381 36.8485 46.1358C37.2462 46.5335 37.753 46.8044 38.3046 46.9141C38.8562 47.0238 39.428 46.9675 39.9476 46.7523C40.4673 46.537 40.9114 46.1726 41.2239 45.7049C41.5363 45.2373 41.7031 44.6874 41.7031 44.125C41.7031 43.3708 41.4035 42.6475 40.8702 42.1142C40.3369 41.5809 39.6136 41.2812 38.8594 41.2812ZM38.8594 45.5469C38.5782 45.5469 38.3032 45.4635 38.0694 45.3072C37.8356 45.151 37.6534 44.9289 37.5457 44.6691C37.4381 44.4093 37.41 44.1234 37.4648 43.8476C37.5197 43.5718 37.6551 43.3184 37.854 43.1196C38.0528 42.9207 38.3062 42.7853 38.582 42.7304C38.8578 42.6756 39.1437 42.7037 39.4035 42.8114C39.6633 42.919 39.8854 43.1012 40.0416 43.335C40.1979 43.5689 40.2812 43.8438 40.2812 44.125C40.2812 44.5021 40.1314 44.8638 39.8648 45.1304C39.5981 45.3971 39.2365 45.5469 38.8594 45.5469Z" fill="#0A8EED"/>
<path d="M29.8589 37.0156H41.0953C41.5012 36.9981 41.8925 36.8589 42.2183 36.6161C42.5441 36.3733 42.7894 36.0382 42.9224 35.6542L45.919 25.5838C45.9812 25.4252 46.0019 25.2534 45.9793 25.0846C45.9567 24.9158 45.8915 24.7555 45.7897 24.6189C45.688 24.4823 45.5531 24.3739 45.3979 24.3039C45.2426 24.2339 45.0721 24.2046 44.9023 24.2188H26.0625C25.8935 24.2058 25.7239 24.2358 25.5696 24.306C25.4153 24.3761 25.2812 24.4841 25.1798 24.6199C25.0784 24.7557 25.0129 24.915 24.9895 25.0828C24.9661 25.2507 24.9855 25.4218 25.0458 25.5802L28.0318 35.6506C28.1641 36.0353 28.4092 36.3712 28.735 36.6146C29.0609 36.8581 29.4525 36.9978 29.8589 37.0156ZM43.1463 29.9063H40.2812V28.4844H43.5693L43.1463 29.9063ZM34.7715 31.3281V32.75H32.1055V31.3281H34.7715ZM36.1933 32.75V31.3281H38.8594V32.75H36.1933ZM38.8594 29.9063H36.1933V28.4844H38.8594V29.9063ZM34.7715 28.4844V29.9063H32.1055V28.4844H34.7715ZM30.6836 29.9063H27.8114L27.3884 28.4844H30.6836V29.9063ZM32.1055 34.1719H34.7715V35.5938H32.1055V34.1719ZM36.1933 34.1719H38.8594V35.5938H36.1933V34.1719ZM42.3039 32.75H40.2812V31.3281H42.7269L42.3039 32.75ZM38.8594 27.0625H36.1933V25.6406H38.8594V27.0625ZM34.7715 27.0625H32.1055V25.6406H34.7715V27.0625ZM30.6836 31.3281V32.75H28.6539L28.2308 31.3281H30.6836ZM29.3968 35.2383L29.0769 34.1719H30.6836V35.5938H29.8589C29.7594 35.5748 29.6658 35.5328 29.5855 35.471C29.5053 35.4093 29.4406 35.3296 29.3968 35.2383ZM41.0953 35.5938H40.2812V34.1719H41.8808L41.5609 35.2383C41.5165 35.3298 41.4512 35.4097 41.3704 35.4714C41.2895 35.5331 41.1953 35.575 41.0953 35.5938ZM43.9888 27.0625C43.938 27.057 43.8867 27.057 43.8359 27.0625H40.2812V25.6406H44.4189L43.9888 27.0625ZM30.6836 25.6406V27.0625H26.9689L26.5459 25.6406H30.6836ZM52.0117 34.5273C51.8274 34.5272 51.6502 34.5987 51.5176 34.7267C51.385 34.8547 51.3072 35.0292 51.3008 35.2134V35.3876C51.297 35.481 51.3116 35.5742 51.3438 35.6619C51.3761 35.7496 51.4253 35.8301 51.4887 35.8988C51.5521 35.9674 51.6284 36.023 51.7133 36.0621C51.7981 36.1013 51.8899 36.1233 51.9833 36.127H52.0117C52.1954 36.1271 52.3721 36.0561 52.5046 35.9289C52.6372 35.8016 52.7153 35.628 52.7226 35.4445V35.2632C52.726 35.1677 52.7101 35.0726 52.6758 34.9835C52.6416 34.8943 52.5898 34.813 52.5234 34.7443C52.4571 34.6756 52.3776 34.621 52.2896 34.5837C52.2017 34.5465 52.1072 34.5273 52.0117 34.5273ZM13.191 40.6947L13.0879 40.3748C13.0318 40.1947 12.9065 40.0443 12.7395 39.9567C12.5725 39.869 12.3775 39.8513 12.1974 39.9074C12.0174 39.9635 11.867 40.0888 11.7793 40.2558C11.6916 40.4228 11.6739 40.6177 11.73 40.7978C11.7655 40.9151 11.8046 41.0289 11.8402 41.1533C11.8656 41.2465 11.9097 41.3336 11.9699 41.4092C12.0301 41.4848 12.1051 41.5474 12.1903 41.593C12.2755 41.6387 12.3691 41.6665 12.4654 41.6747C12.5617 41.683 12.6587 41.6715 12.7504 41.641C12.8421 41.6105 12.9267 41.5617 12.9988 41.4974C13.071 41.4331 13.1294 41.3548 13.1703 41.2673C13.2112 41.1797 13.2338 41.0847 13.2367 40.9881C13.2397 40.8915 13.2229 40.7953 13.1874 40.7054L13.191 40.6947ZM11.8793 38.5726C12.0649 38.5412 12.2305 38.4376 12.3398 38.2843C12.4491 38.131 12.4931 37.9407 12.4623 37.755C12.4445 37.6448 12.4267 37.5346 12.4089 37.4244C12.3816 37.2359 12.2805 37.0659 12.1278 36.9519C11.9752 36.8379 11.7835 36.7892 11.5949 36.8166C11.4064 36.8439 11.2364 36.945 11.1224 37.0977C11.0084 37.2503 10.9597 37.442 10.9871 37.6306C10.9871 37.7514 11.0226 37.8688 11.0439 37.9861C11.072 38.1536 11.1591 38.3056 11.2895 38.4145C11.4199 38.5234 11.585 38.582 11.7549 38.5797L11.8793 38.5726ZM14.2183 43.1901C14.177 43.1063 14.1195 43.0315 14.0493 42.9699C13.9791 42.9083 13.8974 42.8611 13.8089 42.8311C13.7205 42.801 13.627 42.7887 13.5337 42.7948C13.4405 42.8009 13.3494 42.8253 13.2656 42.8666C13.1818 42.908 13.107 42.9654 13.0454 43.0356C12.9838 43.1058 12.9366 43.1875 12.9066 43.276C12.8765 43.3644 12.8642 43.458 12.8703 43.5512C12.8764 43.6444 12.9008 43.7355 12.9421 43.8193L13.1057 44.1428C13.147 44.2283 13.2052 44.3046 13.2766 44.3673C13.3479 44.4299 13.4312 44.4777 13.5213 44.5076C13.6115 44.5376 13.7067 44.5492 13.8014 44.5417C13.8961 44.5342 13.9883 44.5079 14.0727 44.4641C14.157 44.4204 14.2317 44.3603 14.2924 44.2872C14.3531 44.2141 14.3986 44.1296 14.4261 44.0387C14.4535 43.9478 14.4625 43.8522 14.4525 43.7578C14.4424 43.6633 14.4136 43.5718 14.3676 43.4887L14.2183 43.1901ZM15.7539 45.7922C15.7016 45.7124 15.6339 45.644 15.5547 45.591C15.4754 45.538 15.3864 45.5015 15.2927 45.4836C15.1991 45.4657 15.1028 45.4669 15.0097 45.4869C14.9165 45.507 14.8283 45.5456 14.7503 45.6004C14.6724 45.6553 14.6062 45.7252 14.5558 45.8061C14.5055 45.887 14.4719 45.9773 14.457 46.0714C14.4422 46.1656 14.4465 46.2618 14.4696 46.3542C14.4927 46.4467 14.5342 46.5336 14.5915 46.6097L14.8012 46.9048C14.9125 47.057 15.0797 47.1588 15.266 47.1878C15.4523 47.2168 15.6425 47.1706 15.7948 47.0594C15.947 46.9481 16.0489 46.781 16.0779 46.5947C16.1069 46.4083 16.0606 46.2181 15.9494 46.0659L15.7539 45.7922ZM22.8277 51.9453L22.5291 51.7889C22.4486 51.7216 22.3541 51.6729 22.2526 51.6464C22.151 51.6199 22.0448 51.6162 21.9416 51.6357C21.8385 51.6551 21.7409 51.6971 21.6559 51.7587C21.5709 51.8203 21.5006 51.9 21.45 51.992C21.3995 52.084 21.3699 52.1861 21.3635 52.2908C21.3571 52.3956 21.374 52.5005 21.4129 52.598C21.4518 52.6955 21.5119 52.7832 21.5887 52.8547C21.6655 52.9262 21.7573 52.9798 21.8573 53.0117L22.1772 53.1788C22.2588 53.2451 22.3541 53.2924 22.4563 53.3174C22.5584 53.3424 22.6648 53.3444 22.7678 53.3233C22.8708 53.3023 22.9678 53.2586 23.0519 53.1955C23.136 53.1324 23.2051 53.0514 23.2541 52.9585C23.3032 52.8655 23.331 52.7627 23.3355 52.6577C23.3401 52.5527 23.3213 52.4479 23.2805 52.351C23.2398 52.2541 23.178 52.1675 23.0997 52.0973C23.0214 52.0272 22.9285 51.9753 22.8277 51.9453ZM20.2435 50.3386L19.9733 50.136C19.8992 50.0762 19.8138 50.0319 19.7222 50.0058C19.6306 49.9797 19.5347 49.9722 19.4401 49.9839C19.3456 49.9955 19.2544 50.0261 19.1719 50.0737C19.0894 50.1213 19.0173 50.1849 18.9599 50.2609C18.9025 50.3369 18.8609 50.4237 18.8377 50.516C18.8145 50.6084 18.81 50.7045 18.8246 50.7986C18.8393 50.8927 18.8726 50.9829 18.9228 51.0639C18.973 51.1449 19.0389 51.2149 19.1166 51.2699L19.4081 51.4868C19.4835 51.5418 19.569 51.5815 19.6597 51.6036C19.7505 51.6256 19.8446 51.6296 19.9369 51.6152C20.0292 51.6009 20.1177 51.5685 20.1974 51.5199C20.2772 51.4713 20.3466 51.4075 20.4016 51.3321C20.4567 51.2567 20.4964 51.1712 20.5185 51.0805C20.5405 50.9898 20.5445 50.8956 20.5301 50.8033C20.5157 50.7111 20.4834 50.6226 20.4348 50.5428C20.3862 50.4631 20.3224 50.3937 20.247 50.3386H20.2435ZM17.7019 48.124C17.6412 48.0445 17.5643 47.9786 17.4764 47.9308C17.3885 47.883 17.2915 47.8543 17.1917 47.8465C17.0919 47.8388 16.9916 47.8522 16.8974 47.8859C16.8032 47.9195 16.7171 47.9728 16.6448 48.042C16.5726 48.1112 16.5157 48.1949 16.4781 48.2877C16.4404 48.3804 16.4227 48.48 16.4262 48.58C16.4297 48.68 16.4542 48.7782 16.4982 48.8681C16.5423 48.9579 16.6048 49.0375 16.6817 49.1016L16.9341 49.3575C17.0675 49.4909 17.2484 49.5658 17.437 49.5658C17.6257 49.5658 17.8066 49.4909 17.94 49.3575C18.0734 49.2241 18.1484 49.0432 18.1484 48.8545C18.1484 48.6659 18.0734 48.4849 17.94 48.3515L17.7019 48.124ZM45.3253 48.5968L45.0836 48.8279C45.0117 48.8904 44.9531 48.9668 44.9113 49.0524C44.8695 49.138 44.8454 49.2312 44.8403 49.3264C44.8352 49.4215 44.8493 49.5167 44.8818 49.6063C44.9142 49.6959 44.9644 49.7781 45.0292 49.8479C45.094 49.9178 45.1722 49.9739 45.2592 50.0129C45.3461 50.0519 45.44 50.073 45.5353 50.075C45.6306 50.077 45.7253 50.0598 45.8138 50.0245C45.9023 49.9892 45.9828 49.9364 46.0505 49.8694L46.3135 49.6205C46.4493 49.4895 46.5274 49.3099 46.5308 49.1212C46.5341 48.9326 46.4624 48.7503 46.3313 48.6146C46.2664 48.5473 46.1889 48.4936 46.1033 48.4563C46.0176 48.419 45.9254 48.399 45.832 48.3973C45.6433 48.394 45.4611 48.4658 45.3253 48.5968ZM49.9429 43.4852C49.8605 43.4409 49.7702 43.4134 49.6772 43.4041C49.5842 43.3949 49.4902 43.404 49.4008 43.4311C49.3113 43.4582 49.228 43.5026 49.1557 43.5619C49.0835 43.6212 49.0236 43.6942 48.9796 43.7766L48.816 44.0717C48.7694 44.1531 48.7392 44.243 48.7272 44.3361C48.7153 44.4292 48.7218 44.5238 48.7464 44.6144C48.771 44.705 48.8132 44.7899 48.8705 44.8642C48.9279 44.9385 48.9994 45.0008 49.0809 45.0474C49.1623 45.0941 49.2522 45.1243 49.3453 45.1363C49.4384 45.1482 49.533 45.1417 49.6236 45.1171C49.7142 45.0925 49.7991 45.0503 49.8734 44.9929C49.9477 44.9355 50.0099 44.8641 50.0566 44.7826L50.2308 44.4627C50.2774 44.3799 50.3069 44.2886 50.3176 44.1942C50.3284 44.0998 50.3201 44.0043 50.2932 43.9131C50.2664 43.822 50.2215 43.7372 50.1614 43.6637C50.1012 43.5902 50.0269 43.5295 49.9429 43.4852ZM42.9899 50.5234L42.7126 50.7154C42.6354 50.7679 42.5692 50.8351 42.518 50.9132C42.4667 50.9913 42.4313 51.0787 42.4138 51.1705C42.3963 51.2622 42.397 51.3565 42.416 51.448C42.4349 51.5395 42.4717 51.6263 42.5242 51.7036C42.5768 51.7809 42.644 51.847 42.7221 51.8983C42.8001 51.9496 42.8876 51.985 42.9793 52.0025C43.0711 52.02 43.1654 52.0192 43.2569 52.0002C43.3483 51.9813 43.4352 51.9445 43.5124 51.892L43.8075 51.6858C43.8872 51.6336 43.9556 51.5658 44.0086 51.4866C44.0616 51.4074 44.0981 51.3183 44.116 51.2247C44.1339 51.131 44.1328 51.0348 44.1127 50.9416C44.0926 50.8484 44.054 50.7602 43.9992 50.6823C43.9444 50.6043 43.8744 50.5381 43.7935 50.4878C43.7126 50.4374 43.6224 50.4038 43.5282 50.389C43.4341 50.3741 43.3379 50.3784 43.2454 50.4015C43.1529 50.4246 43.066 50.4661 42.9899 50.5234ZM48.3362 46.1903C48.1862 46.0764 47.9972 46.0266 47.8106 46.052C47.624 46.0773 47.455 46.1756 47.3408 46.3254L47.1347 46.592C47.077 46.6655 47.0344 46.7496 47.0093 46.8396C46.9842 46.9296 46.977 47.0237 46.9882 47.1164C46.9995 47.2092 47.0288 47.2988 47.0747 47.3802C47.1206 47.4616 47.182 47.5332 47.2555 47.5908C47.3291 47.6485 47.4132 47.6911 47.5032 47.7162C47.5932 47.7413 47.6872 47.7485 47.78 47.7373C47.8727 47.726 47.9624 47.6967 48.0438 47.6508C48.1252 47.6049 48.1967 47.5435 48.2544 47.47L48.4748 47.1856C48.5883 47.0352 48.6375 46.8459 48.6115 46.6592C48.5855 46.4726 48.4865 46.3039 48.3362 46.1903ZM51.1088 40.5703C51.0206 40.5394 50.9271 40.5262 50.8338 40.5315C50.7405 40.5367 50.6491 40.5603 50.5649 40.6009C50.4807 40.6416 50.4054 40.6984 50.3432 40.7681C50.2809 40.8379 50.2331 40.9193 50.2024 41.0075C50.1668 41.1142 50.1289 41.2196 50.0886 41.3239C50.0542 41.4119 50.0376 41.5058 50.0398 41.6002C50.0421 41.6947 50.0632 41.7877 50.1018 41.8739C50.1404 41.9601 50.1958 42.0377 50.2648 42.1023C50.3338 42.1668 50.4149 42.217 50.5035 42.2498C50.5921 42.2827 50.6863 42.2975 50.7807 42.2935C50.875 42.2895 50.9677 42.2667 51.0532 42.2265C51.1386 42.1863 51.2152 42.1295 51.2785 42.0594C51.3418 41.9892 51.3904 41.9072 51.4216 41.818C51.4643 41.7043 51.5058 41.5858 51.546 41.4625C51.6041 41.2862 51.5909 41.0941 51.5092 40.9274C51.4275 40.7606 51.2838 40.6325 51.1088 40.5703ZM51.8091 37.4955C51.7161 37.4787 51.6207 37.4806 51.5285 37.5011C51.4362 37.5216 51.349 37.5603 51.2719 37.6149C51.1947 37.6695 51.1293 37.739 51.0793 37.8192C51.0294 37.8994 50.9959 37.9887 50.9808 38.082C50.9595 38.1922 50.9382 38.3024 50.9169 38.4091C50.8982 38.5006 50.8977 38.5948 50.9155 38.6865C50.9332 38.7782 50.9689 38.8655 51.0204 38.9434C51.0719 39.0213 51.1382 39.0883 51.2156 39.1405C51.293 39.1928 51.3799 39.2293 51.4714 39.248C51.5629 39.2666 51.6572 39.2671 51.7488 39.2493C51.8405 39.2316 51.9278 39.1959 52.0057 39.1444C52.0836 39.093 52.1506 39.0266 52.2029 38.9492C52.2551 38.8719 52.2916 38.7849 52.3103 38.6934C52.334 38.5749 52.3565 38.4565 52.3778 38.338C52.3969 38.2452 52.3972 38.1496 52.3788 38.0567C52.3604 37.9638 52.3237 37.8756 52.2707 37.7971C52.2177 37.7186 52.1496 37.6515 52.0703 37.5997C51.991 37.5479 51.9022 37.5125 51.8091 37.4955ZM28.5685 53.8222L28.2344 53.7653C28.0487 53.7318 27.8573 53.7735 27.7023 53.8812C27.5473 53.9888 27.4414 54.1537 27.4079 54.3394C27.3745 54.5251 27.4161 54.7165 27.5238 54.8715C27.6315 55.0265 27.7963 55.1324 27.982 55.1659L28.3375 55.2263H28.4548C28.5482 55.2338 28.6421 55.2228 28.7312 55.1939C28.8203 55.1651 28.9029 55.119 28.9742 55.0583C29.0455 54.9975 29.1041 54.9234 29.1467 54.84C29.1894 54.7566 29.2151 54.6656 29.2226 54.5722C29.2301 54.4789 29.2191 54.3849 29.1903 54.2958C29.1614 54.2067 29.1153 54.1242 29.0546 54.0529C28.9939 53.9816 28.9197 53.9229 28.8363 53.8803C28.7529 53.8377 28.6619 53.8119 28.5685 53.8044V53.8222ZM40.3843 52.0733L40.0822 52.219C39.9959 52.2576 39.9182 52.3129 39.8536 52.3819C39.789 52.4508 39.7388 52.5319 39.7059 52.6205C39.6729 52.7091 39.658 52.8033 39.662 52.8977C39.6659 52.9921 39.6886 53.0848 39.7288 53.1703C39.7689 53.2558 39.8257 53.3325 39.8959 53.3958C39.966 53.4591 40.048 53.5078 40.1372 53.539C40.2264 53.5703 40.3209 53.5834 40.4152 53.5777C40.5095 53.572 40.6017 53.5476 40.6865 53.5058L41.0135 53.3494C41.0973 53.3081 41.1721 53.2507 41.2337 53.1805C41.2953 53.1102 41.3425 53.0285 41.3725 52.9401C41.4026 52.8516 41.4149 52.7581 41.4088 52.6649C41.4027 52.5717 41.3783 52.4805 41.337 52.3968C41.2957 52.313 41.2383 52.2381 41.168 52.1765C41.0978 52.1149 41.0161 52.0678 40.9276 52.0377C40.749 51.9771 40.5535 51.9898 40.3843 52.0733ZM31.59 54.0781H31.2523C31.0668 54.0781 30.8886 54.1505 30.7558 54.28C30.623 54.4095 30.546 54.5858 30.5414 54.7713C30.5365 54.9569 30.6045 55.137 30.7307 55.2732C30.8569 55.4094 31.0313 55.4908 31.2168 55.5H31.5723C31.7608 55.5 31.9416 55.4251 32.075 55.2918C32.2083 55.1584 32.2832 54.9776 32.2832 54.7891C32.2832 54.6005 32.2083 54.4197 32.075 54.2864C31.9416 54.153 31.7608 54.0781 31.5723 54.0781H31.59ZM25.6253 53.1006L25.3053 52.9904C25.1272 52.9282 24.9316 52.9393 24.7616 53.0213C24.5916 53.1033 24.4611 53.2494 24.3989 53.4276C24.3367 53.6058 24.3478 53.8014 24.4298 53.9714C24.5118 54.1414 24.6579 54.2718 24.8361 54.3341L25.1916 54.4514C25.2803 54.4805 25.3739 54.492 25.467 54.485C25.5601 54.478 25.6509 54.4527 25.7342 54.4106C25.8176 54.3686 25.8918 54.3105 25.9527 54.2397C26.0136 54.1689 26.06 54.0868 26.0891 53.9981C26.1183 53.9095 26.1297 53.8159 26.1228 53.7228C26.1158 53.6297 26.0905 53.5388 26.0484 53.4555C26.0063 53.3722 25.9483 53.2979 25.8775 53.237C25.8067 53.1761 25.7246 53.1298 25.6359 53.1006H25.6253ZM37.5726 53.1966L37.2491 53.2925C37.1595 53.3187 37.0759 53.3622 37.0031 53.4207C36.9303 53.4791 36.8697 53.5513 36.8248 53.6332C36.7341 53.7985 36.7129 53.9931 36.7656 54.1741C36.8184 54.3551 36.941 54.5077 37.1063 54.5984C37.2716 54.6891 37.4662 54.7103 37.6472 54.6575L38.0027 54.5545C38.0918 54.5267 38.1747 54.4816 38.2464 54.4218C38.3181 54.3621 38.3774 54.2887 38.4208 54.206C38.4642 54.1234 38.4909 54.0329 38.4994 53.9399C38.5078 53.8469 38.4979 53.7532 38.4701 53.664C38.4423 53.5748 38.3973 53.492 38.3375 53.4203C38.2777 53.3485 38.2044 53.2893 38.1217 53.2459C38.039 53.2025 37.9486 53.1758 37.8556 53.1673C37.7626 53.1588 37.6688 53.1688 37.5797 53.1966H37.5726ZM34.6186 53.872L34.2845 53.9182C34.1911 53.924 34.0998 53.9482 34.0158 53.9893C33.9318 54.0304 33.8567 54.0877 33.7948 54.1578C33.6698 54.2995 33.6062 54.485 33.618 54.6735C33.6298 54.8621 33.716 55.0382 33.8576 55.1632C33.9993 55.2882 34.1848 55.3518 34.3733 55.34H34.4658L34.8212 55.2903C35.0098 55.2629 35.1798 55.1618 35.2938 55.0092C35.4077 54.8565 35.4564 54.6648 35.4291 54.4763C35.4017 54.2877 35.3006 54.1177 35.148 54.0037C34.9953 53.8897 34.8036 53.8411 34.6151 53.8684L34.6186 53.872ZM11.4883 35.416C11.666 35.4193 11.8384 35.3559 11.9717 35.2383L12.6613 36.3402C12.7639 36.4942 12.9225 36.602 13.1033 36.6409C13.2841 36.6799 13.473 36.6468 13.6298 36.5487C13.7867 36.4506 13.8991 36.2953 13.9433 36.1157C13.9874 35.936 13.9598 35.7463 13.8664 35.5866L12.089 32.7429C12.0251 32.6408 11.9362 32.5566 11.8308 32.4983C11.7254 32.4399 11.607 32.4093 11.4865 32.4093C11.366 32.4093 11.2475 32.4399 11.1421 32.4983C11.0368 32.5566 10.9479 32.6408 10.884 32.7429L9.10663 35.5866C9.02678 35.7459 9.00966 35.9294 9.05865 36.1007C9.10765 36.272 9.21919 36.4187 9.37118 36.5117C9.52318 36.6047 9.70455 36.6372 9.87938 36.6028C10.0542 36.5684 10.2098 36.4696 10.3152 36.326L11.0048 35.2383C11.1381 35.3559 11.3106 35.4193 11.4883 35.416Z" fill="#0A8EED"/>
<path d="M54.1658 28.95C54.0865 28.9004 53.9982 28.8669 53.9059 28.8515C53.8136 28.836 53.7192 28.839 53.628 28.8601C53.5369 28.8812 53.4508 28.9202 53.3747 28.9746C53.2987 29.0291 53.2341 29.0981 53.1847 29.1775L52.6942 29.9596C52.4616 24.5338 50.1334 19.4098 46.1995 15.6657C42.2655 11.9217 37.0327 9.84967 31.602 9.88559C26.1714 9.92151 20.9664 12.0626 17.0823 15.8583C13.1983 19.6541 10.9381 24.8084 10.7773 30.2368C10.7707 30.4254 10.8393 30.6088 10.9679 30.7468C11.0966 30.8848 11.2748 30.9661 11.4633 30.9727C11.6519 30.9793 11.8353 30.9107 11.9733 30.782C12.1113 30.6534 12.1926 30.4752 12.1992 30.2866C12.3526 25.2433 14.4499 20.4547 18.0525 16.922C21.6551 13.3893 26.4839 11.3862 31.5292 11.3316C36.5745 11.277 41.4456 13.175 45.1238 16.6289C48.8021 20.0827 51.0026 24.8248 51.2652 29.8636L50.8351 29.174C50.7325 29.0201 50.5739 28.9122 50.3931 28.8733C50.2123 28.8344 50.0234 28.8674 49.8665 28.9655C49.7097 29.0636 49.5973 29.2189 49.5531 29.3986C49.509 29.5782 49.5365 29.768 49.63 29.9276L51.4074 32.7713C51.4713 32.8734 51.5602 32.9576 51.6655 33.0159C51.7709 33.0743 51.8894 33.1049 52.0099 33.1049C52.1304 33.1049 52.2488 33.0743 52.3542 33.0159C52.4596 32.9576 52.5485 32.8734 52.6124 32.7713L54.3898 29.9276C54.4892 29.7681 54.5215 29.5758 54.4795 29.3926C54.4375 29.2094 54.3248 29.0503 54.1658 28.95Z" fill="#0A8EED"/>
</g>
<defs>
<linearGradient id="paint0_linear_175_2245" x1="32" y1="0.208631" x2="32" y2="63.4172" gradientUnits="userSpaceOnUse">
<stop stop-color="#E8F5FF"/>
<stop offset="1" stop-color="#B4DFFF"/>
</linearGradient>
<clipPath id="clip0_175_2245">
<rect width="45.5" height="45.5" fill="white" transform="translate(9 10)"/>
</clipPath>
</defs>
</svg>
