<svg width="60" height="61" viewBox="0 0 60 61" fill="none" xmlns="http://www.w3.org/2000/svg">
<circle cx="30" cy="30.0015" r="30" fill="url(#paint0_linear_5_781)"/>
<path d="M59.4269 12.509C59.2512 9.37966 57.9306 6.42475 55.7172 4.20848C53.5039 1.9922 50.5529 0.669825 47.4278 0.493828C35.7921 -0.164609 24.1286 -0.164609 12.493 0.493828C9.3678 0.669925 6.41681 1.99232 4.20341 4.20856C1.99 6.42479 0.669204 9.37964 0.493171 12.509C-0.16439 24.1604 -0.16439 35.8396 0.493171 47.491C0.669201 50.6204 1.98999 53.5752 4.2034 55.7915C6.4168 58.0078 9.36779 59.3302 12.493 59.5063C24.1286 60.1664 35.7922 60.1664 47.4278 59.5063C50.5529 59.3303 53.5039 58.0079 55.7172 55.7916C57.9306 53.5753 59.2512 50.6204 59.4269 47.491C60.0845 35.8396 60.0845 24.1604 59.4269 12.509Z" fill="url(#paint1_linear_5_781)"/>
<path d="M22.015 31.53C27.2615 31.53 31.53 27.2615 31.53 22.015C31.53 16.7685 27.262 12.5 22.015 12.5C16.768 12.5 12.5 16.7685 12.5 22.015C12.5 27.2615 16.7685 31.53 22.015 31.53ZM22.015 13.5C26.71 13.5 30.53 17.32 30.53 22.015C30.53 26.71 26.71 30.53 22.015 30.53C17.32 30.53 13.5 26.71 13.5 22.015C13.5 17.32 17.32 13.5 22.015 13.5Z" fill="#0A8EED"/>
<path d="M22.015 29.47C26.1255 29.47 29.47 26.1255 29.47 22.015C29.47 17.9045 26.125 14.5605 22.015 14.5605C17.905 14.5605 14.5605 17.905 14.5605 22.0155C14.5605 26.126 17.905 29.4695 22.0155 29.4695L22.015 29.47ZM22.015 15.5605C25.574 15.5605 28.47 18.456 28.47 22.0155C28.47 25.575 25.574 28.4695 22.015 28.4695C18.456 28.4695 15.5605 25.5745 15.5605 22.015C15.5605 18.4555 18.456 15.5605 22.0155 15.5605H22.015ZM37.985 45.44C42.095 45.44 45.4395 42.0955 45.4395 37.985C45.4395 33.8745 42.095 30.531 37.9845 30.531C33.874 30.531 30.5305 33.875 30.5305 37.9855C30.5305 42.096 33.8745 45.44 37.985 45.44V45.44ZM37.985 31.531C41.544 31.531 44.4395 34.426 44.4395 37.9855C44.4395 41.545 41.544 44.44 37.9845 44.44C34.425 44.44 31.5305 41.5445 31.5305 37.985C31.5305 34.4255 34.4255 31.531 37.985 31.531V31.531Z" fill="#0A8EED"/>
<path d="M28.47 37.9851C28.47 43.2316 32.738 47.5001 37.985 47.5001C43.232 47.5001 47.5 43.2316 47.5 37.9851C47.5 32.7386 43.2315 28.4701 37.985 28.4701C32.7385 28.4701 28.47 32.7386 28.47 37.9851ZM37.985 29.4701C42.68 29.4701 46.5 33.2901 46.5 37.9851C46.5 42.6801 42.68 46.5001 37.985 46.5001C33.29 46.5001 29.47 42.6801 29.47 37.9851C29.47 33.2901 33.29 29.4701 37.985 29.4701ZM42.8235 14.6431H35.0565C34.9239 14.6431 34.7967 14.6957 34.7029 14.7895C34.6092 14.8833 34.5565 15.0105 34.5565 15.1431C34.5565 15.2757 34.6092 15.4029 34.7029 15.4966C34.7967 15.5904 34.9239 15.6431 35.0565 15.6431H42.3235V23.1941L40.601 21.4716C40.5549 21.4238 40.4997 21.3857 40.4387 21.3595C40.3777 21.3333 40.3121 21.3195 40.2457 21.3189C40.1793 21.3184 40.1135 21.331 40.052 21.3562C39.9906 21.3813 39.9347 21.4184 39.8878 21.4654C39.8409 21.5123 39.8037 21.5681 39.7786 21.6296C39.7534 21.691 39.7408 21.7569 39.7414 21.8233C39.742 21.8897 39.7557 21.9553 39.7819 22.0163C39.8082 22.0773 39.8462 22.1324 39.894 22.1786L42.4695 24.7536C42.5393 24.8237 42.6284 24.8716 42.7254 24.891C42.8225 24.9104 42.9231 24.9005 43.0145 24.8626C43.0756 24.8376 43.1312 24.8007 43.178 24.7541L45.753 22.1791C45.8468 22.0853 45.8996 21.9581 45.8996 21.8255C45.8996 21.6929 45.847 21.5656 45.7533 21.4718C45.6595 21.378 45.5323 21.3253 45.3997 21.3252C45.267 21.3252 45.1398 21.3778 45.046 21.4716L43.3235 23.1941V15.1431C43.3235 15.0105 43.2708 14.8833 43.1771 14.7895C43.0833 14.6957 42.9561 14.6431 42.8235 14.6431ZM17.1765 45.3571H24.9435C25.0761 45.3571 25.2033 45.3044 25.2971 45.2106C25.3908 45.1169 25.4435 44.9897 25.4435 44.8571C25.4435 44.7245 25.3908 44.5973 25.2971 44.5035C25.2033 44.4097 25.0761 44.3571 24.9435 44.3571H17.6765V36.8061L19.399 38.5286C19.4453 38.5752 19.5004 38.6121 19.5611 38.6374C19.6217 38.6626 19.6868 38.6756 19.7525 38.6756C19.8182 38.6756 19.8833 38.6626 19.9439 38.6374C20.0046 38.6121 20.0597 38.5752 20.106 38.5286C20.1997 38.4348 20.2524 38.3076 20.2524 38.1751C20.2524 38.0425 20.1997 37.9153 20.106 37.8216L17.5305 35.2466C17.484 35.1999 17.4288 35.1629 17.368 35.1377C17.3073 35.1124 17.2421 35.0994 17.1763 35.0994C17.1104 35.0994 17.0452 35.1124 16.9845 35.1377C16.9237 35.1629 16.8685 35.1999 16.822 35.2466L14.247 37.8216C14.1992 37.8677 14.1612 37.9229 14.1349 37.9839C14.1087 38.0449 14.095 38.1105 14.0944 38.1769C14.0938 38.2433 14.1064 38.3091 14.1316 38.3705C14.1567 38.432 14.1939 38.4878 14.2408 38.5348C14.2877 38.5817 14.3436 38.6188 14.405 38.644C14.4665 38.6691 14.5323 38.6818 14.5987 38.6812C14.6651 38.6806 14.7307 38.6668 14.7917 38.6406C14.8527 38.6144 14.9079 38.5763 14.954 38.5286L16.6765 36.8061V44.8571C16.6765 44.9897 16.7292 45.1169 16.8229 45.2106C16.9167 45.3044 17.0439 45.3571 17.1765 45.3571Z" fill="#0A8EED"/>
<defs>
<linearGradient id="paint0_linear_5_781" x1="30" y1="-0.230695" x2="30" y2="58.9471" gradientUnits="userSpaceOnUse">
<stop stop-color="#E8F5FF"/>
<stop offset="1" stop-color="#B4DFFF"/>
</linearGradient>
<linearGradient id="paint1_linear_5_781" x1="29.9601" y1="-0.232166" x2="29.9601" y2="58.947" gradientUnits="userSpaceOnUse">
<stop stop-color="#E8F5FF"/>
<stop offset="1" stop-color="#B4DFFF"/>
</linearGradient>
</defs>
</svg>
