<svg width="70" height="70" viewBox="0 0 70 70" fill="none" xmlns="http://www.w3.org/2000/svg">
<ellipse cx="34.8177" cy="34.9681" rx="34.2728" ry="34.3227" fill="url(#paint0_linear_5_332)"/>
<path d="M39.6839 31.8312C40.6574 30.8141 41.6239 28.441 37.5675 31.3227C31.8037 35.4776 26.1229 39.3782 26.1229 39.3782C25.5382 39.6545 24.906 39.8044 24.2644 39.819C23.6227 39.8335 22.9849 39.7124 22.3892 39.463C19.9553 38.7002 17.114 37.6831 17.114 37.6831C17.114 37.6831 15.174 36.4099 18.495 35.0538C18.495 35.0538 32.5357 29.0342 37.4052 26.9135C39.2712 26.0659 45.601 23.3537 45.601 23.3537C45.601 23.3537 48.5235 22.1653 48.2801 25.0488C48.1989 26.2354 47.5499 30.3922 46.9009 34.8843C45.9256 41.2429 44.8709 48.1966 44.8709 48.1966C44.8709 48.1966 44.7086 50.146 43.3294 50.485C41.853 50.4589 40.4265 49.9224 39.2729 48.9594C38.9484 48.7052 33.1865 44.8893 31.0753 43.0246C30.8606 42.8726 30.6861 42.6664 30.5682 42.425C30.4502 42.1837 30.3926 41.9151 30.4007 41.6443C30.4088 41.3734 30.4823 41.1091 30.6145 40.8759C30.7466 40.6427 30.9331 40.4482 31.1565 40.3106C34.0842 37.5136 37.5745 34.0367 39.6839 31.8312Z" fill="url(#paint1_linear_5_332)"/>
<defs>
<linearGradient id="paint0_linear_5_332" x1="34.8177" y1="0.379774" x2="34.8177" y2="68.0845" gradientUnits="userSpaceOnUse">
<stop stop-color="#E8F5FF"/>
<stop offset="1" stop-color="#B4DFFF"/>
</linearGradient>
<linearGradient id="paint1_linear_5_332" x1="32.4226" y1="22.7966" x2="32.4226" y2="53.6143" gradientUnits="userSpaceOnUse">
<stop stop-color="#217CF0"/>
<stop offset="1" stop-color="#01ACF1"/>
</linearGradient>
</defs>
</svg>
