<svg width="28" height="27" viewBox="0 0 28 27" fill="none" xmlns="http://www.w3.org/2000/svg">
<path d="M19.4553 0H8.84354C4.45504 0 0.897461 3.55758 0.897461 7.94608V18.5579C0.897461 22.9464 4.45504 26.5039 8.84354 26.5039H19.4553C23.8438 26.5039 27.4014 22.9464 27.4014 18.5579V7.94608C27.4014 3.55758 23.8438 0 19.4553 0Z" fill="white" fill-opacity="0.2"/>
<path d="M14.1491 6.23621C12.7615 6.23621 11.405 6.64767 10.2513 7.41857C9.09758 8.18947 8.19835 9.28518 7.66735 10.5671C7.13634 11.8491 6.99741 13.2597 7.26811 14.6207C7.53881 15.9816 8.207 17.2317 9.18817 18.2128C10.1693 19.194 11.4194 19.8622 12.7803 20.1329C14.1413 20.4036 15.5519 20.2647 16.8339 19.7337C18.1158 19.2027 19.2115 18.3034 19.9824 17.1497C20.7533 15.996 21.1648 14.6395 21.1648 13.252C21.1649 12.3306 20.9835 11.4183 20.6309 10.5671C20.2784 9.71583 19.7616 8.94239 19.1101 8.2909C18.4586 7.63941 17.6852 7.12264 16.834 6.77009C15.9827 6.41755 15.0704 6.23613 14.1491 6.23621ZM16.3797 16.8668C16.3535 16.9323 16.3135 16.9914 16.2625 17.0402C16.2116 17.0889 16.1507 17.1262 16.0842 17.1496C16.0176 17.1729 15.9468 17.1818 15.8765 17.1756C15.8063 17.1693 15.7381 17.1481 15.6767 17.1134L13.7722 15.6335L12.5498 16.7612C12.5215 16.7822 12.4883 16.7957 12.4533 16.8004C12.4184 16.8052 12.3828 16.8011 12.3499 16.7885L12.5842 14.6919L12.5917 14.6979L12.5965 14.6565C12.5965 14.6565 16.0237 11.5362 16.1633 11.4033C16.3046 11.2707 16.258 11.2419 16.258 11.2419C16.2661 11.0802 16.0044 11.2419 16.0044 11.2419L11.4634 14.1633L9.57234 13.5193C9.57234 13.5193 9.28188 13.4151 9.25452 13.186C9.22576 12.9587 9.5818 12.8352 9.5818 12.8352L17.1006 9.84826C17.1006 9.84826 17.7187 9.57287 17.7187 10.0289L16.3797 16.8668Z" fill="#F6F9FC"/>
</svg>
