<svg width="60" height="61" viewBox="0 0 60 61" fill="none" xmlns="http://www.w3.org/2000/svg">
<circle cx="30" cy="30.0015" r="30" fill="url(#paint0_linear_5_781)"/>
<path d="M59.4269 12.509C59.2512 9.37966 57.9306 6.42475 55.7172 4.20848C53.5039 1.9922 50.5529 0.669825 47.4278 0.493828C35.7921 -0.164609 24.1286 -0.164609 12.493 0.493828C9.3678 0.669925 6.41681 1.99232 4.20341 4.20856C1.99 6.42479 0.669204 9.37964 0.493171 12.509C-0.16439 24.1604 -0.16439 35.8396 0.493171 47.491C0.669201 50.6204 1.98999 53.5752 4.2034 55.7915C6.4168 58.0078 9.36779 59.3302 12.493 59.5063C24.1286 60.1664 35.7922 60.1664 47.4278 59.5063C50.5529 59.3303 53.5039 58.0079 55.7172 55.7916C57.9306 53.5753 59.2512 50.6204 59.4269 47.491C60.0845 35.8396 60.0845 24.1604 59.4269 12.509Z" fill="url(#paint1_linear_5_781)"/>
<path d="M32.8006 37.656H26.2006C25.8198 37.656 25.566 37.4021 25.566 37.0214C25.566 36.6406 25.8198 36.3867 26.2006 36.3867H32.8006C33.1814 36.3867 33.4352 36.6406 33.4352 37.0214C33.4352 37.4021 33.1814 37.656 32.8006 37.656ZM30.2621 40.1944H26.2006C25.8198 40.1944 25.566 39.9406 25.566 39.5598C25.566 39.1791 25.8198 38.9252 26.2006 38.9252H30.2621C30.6429 38.9252 30.8967 39.1791 30.8967 39.5598C30.8967 39.9406 30.6429 40.1944 30.2621 40.1944ZM18.7121 40.1944C17.6967 40.1944 16.8083 39.306 16.8083 38.2906V30.6752C16.8083 29.6598 17.6967 28.7714 18.7121 28.7714C19.7275 28.7714 20.616 29.6598 20.616 30.6752V38.2906C20.616 39.306 19.7275 40.1944 18.7121 40.1944ZM18.7121 30.0406C18.3314 30.0406 18.0775 30.2944 18.0775 30.6752V38.2906C18.0775 38.6714 18.3314 38.9252 18.7121 38.9252C19.0929 38.9252 19.3467 38.6714 19.3467 38.2906V30.6752C19.3467 30.2944 19.0929 30.0406 18.7121 30.0406Z" fill="#0A8EED"/>
<path d="M17.4423 38.9252H14.9038C13.8885 38.9252 13 38.0367 13 37.0214V31.9444C13 30.9291 13.8885 30.0406 14.9038 30.0406H17.4423C17.8231 30.0406 18.0769 30.2944 18.0769 30.6752V38.2906C18.0769 38.6714 17.8231 38.9252 17.4423 38.9252ZM14.9038 31.3098C14.5231 31.3098 14.2692 31.5637 14.2692 31.9444V37.0214C14.2692 37.4021 14.5231 37.656 14.9038 37.656H16.8077V31.3098H14.9038ZM40.2885 40.1944C39.2731 40.1944 38.3846 39.306 38.3846 38.2906V30.6752C38.3846 29.6598 39.2731 28.7714 40.2885 28.7714C41.3038 28.7714 42.1923 29.6598 42.1923 30.6752V38.2906C42.1923 39.306 41.3038 40.1944 40.2885 40.1944ZM40.2885 30.0406C39.9077 30.0406 39.6538 30.2944 39.6538 30.6752V38.2906C39.6538 38.6714 39.9077 38.9252 40.2885 38.9252C40.6692 38.9252 40.9231 38.6714 40.9231 38.2906V30.6752C40.9231 30.2944 40.6692 30.0406 40.2885 30.0406Z" fill="#0A8EED"/>
<path d="M44.0962 38.9244H41.5577C41.1769 38.9244 40.9231 38.6706 40.9231 38.2898V30.6744C40.9231 30.2936 41.1769 30.0398 41.5577 30.0398H44.0962C45.1115 30.0398 46 30.9283 46 31.9436V37.0206C46 38.036 45.1115 38.9244 44.0962 38.9244ZM42.1923 37.6552H44.0962C44.4769 37.6552 44.7308 37.4013 44.7308 37.0206V31.9436C44.7308 31.5629 44.4769 31.309 44.0962 31.309H42.1923V37.6552ZM32.6731 49.0783H31.4038C30.3885 49.0783 29.5 48.1898 29.5 47.1744C29.5 46.159 30.3885 45.2706 31.4038 45.2706H32.6731C33.6885 45.2706 34.5769 46.159 34.5769 47.1744C34.5769 48.1898 33.6885 49.0783 32.6731 49.0783ZM31.4038 46.5398C31.0231 46.5398 30.7692 46.7936 30.7692 47.1744C30.7692 47.5552 31.0231 47.809 31.4038 47.809H32.6731C33.0538 47.809 33.3077 47.5552 33.3077 47.1744C33.3077 46.7936 33.0538 46.5398 32.6731 46.5398H31.4038Z" fill="#0A8EED"/>
<path d="M36.481 47.8092H33.9425C33.5618 47.8092 33.3079 47.5553 33.3079 47.1745C33.3079 46.7938 33.5618 46.5399 33.9425 46.5399H36.481C40.2887 46.5399 43.4618 43.3668 43.4618 39.5592V38.2899C43.4618 37.9092 43.7156 37.6553 44.0964 37.6553C44.4772 37.6553 44.731 37.9092 44.731 38.2899V39.5592C44.731 44.1284 41.0502 47.8092 36.481 47.8092ZM42.7002 26.8668C41.6848 26.8668 40.9233 26.1053 40.7964 25.2168C40.2887 19.2515 35.3387 14.8092 29.3733 14.8092C23.4079 14.8092 18.5848 19.2515 17.9502 25.2168C17.8233 26.1053 17.0618 26.8668 16.0464 26.8668C15.5387 26.8668 15.031 26.613 14.6502 26.2322C14.2695 25.8515 14.1425 25.3438 14.1425 24.7092C15.031 16.9668 21.631 11.0015 29.5002 11.0015C37.3695 11.0015 43.9695 16.9668 44.6041 24.8361C44.6041 25.3438 44.4772 25.8515 44.0964 26.3592C43.8425 26.613 43.3348 26.8668 42.7002 26.8668ZM29.5002 13.5399C36.1002 13.5399 41.5579 18.4899 42.1925 25.0899C42.1925 25.3438 42.4464 25.5976 42.8272 25.5976C42.9541 25.5976 43.2079 25.4707 43.3348 25.3438C43.4618 25.2168 43.4618 25.0899 43.4618 24.8361C42.8272 17.6015 36.8618 12.2707 29.5002 12.2707C22.1387 12.2707 16.3002 17.7284 15.5387 24.8361C15.5387 24.963 15.5387 25.2168 15.6656 25.3438C16.0464 25.7245 16.681 25.4707 16.8079 24.963C17.4425 18.4899 22.9002 13.5399 29.5002 13.5399Z" fill="#0A8EED"/>
<path d="M16.173 31.3085C15.7922 31.3085 15.5383 31.0546 15.5383 30.6739V26.8662C15.5383 26.4854 15.7922 26.2316 16.173 26.2316C16.5537 26.2316 16.8076 26.4854 16.8076 26.8662V30.6739C16.8076 31.0546 16.5537 31.3085 16.173 31.3085ZM42.8268 31.3085C42.446 31.3085 42.1922 31.0546 42.1922 30.6739V26.8662C42.1922 26.4854 42.446 26.2316 42.8268 26.2316C43.2076 26.2316 43.4614 26.4854 43.4614 26.8662V30.6739C43.4614 31.0546 43.2076 31.3085 42.8268 31.3085ZM26.3268 45.27C26.1999 45.27 26.073 45.27 26.073 45.1431C25.8191 45.0162 25.6922 44.7623 25.6922 44.6354V42.7316H25.0576C24.0422 42.7316 23.1537 41.8431 23.1537 40.8277V35.7508C23.1537 34.7354 24.0422 33.847 25.0576 33.847H33.9422C34.9576 33.847 35.846 34.7354 35.846 35.7508V40.8277C35.846 41.8431 34.9576 42.7316 33.9422 42.7316H30.3883L26.7076 45.1431C26.5807 45.27 26.4537 45.27 26.3268 45.27ZM25.0576 35.1162C24.6768 35.1162 24.423 35.37 24.423 35.7508V40.8277C24.423 41.2085 24.6768 41.4623 25.0576 41.4623H26.3268C26.7076 41.4623 26.9614 41.7162 26.9614 42.097V43.4931L29.7537 41.5893C29.8807 41.4623 30.0076 41.4623 30.1345 41.4623H33.9422C34.323 41.4623 34.5768 41.2085 34.5768 40.8277V35.7508C34.5768 35.37 34.323 35.1162 33.9422 35.1162H25.0576Z" fill="#0A8EED"/>
<defs>
<linearGradient id="paint0_linear_5_781" x1="30" y1="-0.230695" x2="30" y2="58.9471" gradientUnits="userSpaceOnUse">
<stop stop-color="#E8F5FF"/>
<stop offset="1" stop-color="#B4DFFF"/>
</linearGradient>
<linearGradient id="paint1_linear_5_781" x1="29.9601" y1="-0.232166" x2="29.9601" y2="58.947" gradientUnits="userSpaceOnUse">
<stop stop-color="#E8F5FF"/>
<stop offset="1" stop-color="#B4DFFF"/>
</linearGradient>
</defs>
</svg>
