<svg width="27" height="27" viewBox="0 0 27 27" fill="none" xmlns="http://www.w3.org/2000/svg">
<path d="M18.7541 0H8.14237C3.75387 0 0.196289 3.55758 0.196289 7.94608V18.5579C0.196289 22.9464 3.75387 26.5039 8.14237 26.5039H18.7541C23.1426 26.5039 26.7002 22.9464 26.7002 18.5579V7.94608C26.7002 3.55758 23.1426 0 18.7541 0Z" fill="white" fill-opacity="0.2"/>
<path d="M20.4636 9.16378C19.9363 9.39256 19.3786 9.5438 18.8079 9.61279C19.41 9.25311 19.8612 8.68726 20.0778 8.02021C19.512 8.35701 18.8926 8.59431 18.2466 8.72179C17.8149 8.25354 17.2399 7.94184 16.6118 7.83559C15.9838 7.72934 15.3383 7.83455 14.7765 8.1347C14.2147 8.43486 13.7684 8.91299 13.5077 9.49411C13.2469 10.0752 13.1864 10.7265 13.3356 11.3457C12.1917 11.2878 11.0727 10.9899 10.0513 10.4714C9.02997 9.95289 8.12913 9.2253 7.40732 8.33592C7.15415 8.77803 7.02111 9.27871 7.02145 9.78818C7.02055 10.2613 7.13666 10.7273 7.35944 11.1447C7.58222 11.5621 7.90475 11.918 8.29832 12.1806C7.84088 12.1681 7.39321 12.0454 6.99339 11.8227V11.8578C6.99682 12.5207 7.22911 13.1621 7.65099 13.6735C8.07286 14.1848 8.65841 14.5348 9.30859 14.6641C9.0583 14.7403 8.79845 14.7805 8.53685 14.7834C8.35577 14.7813 8.17514 14.7649 7.99664 14.7343C8.18179 15.3045 8.5401 15.8029 9.02169 16.16C9.50329 16.5171 10.0842 16.7152 10.6837 16.7268C9.67144 17.5232 8.42171 17.9579 7.1337 17.9615C6.89919 17.9623 6.66487 17.9482 6.43213 17.9194C7.74718 18.7685 9.27969 19.2193 10.845 19.2173C11.9252 19.2286 12.9969 19.0244 13.9973 18.6169C14.9977 18.2093 15.9069 17.6064 16.6718 16.8436C17.4366 16.0807 18.0418 15.173 18.4519 14.1737C18.862 13.1743 19.0689 12.1032 19.0605 11.023C19.0605 10.9037 19.0605 10.7774 19.0605 10.6511C19.611 10.2406 20.0858 9.73726 20.4636 9.16378Z" fill="#F6F9FC"/>
</svg>
