<svg width="69" height="69" viewBox="0 0 69 69" fill="none" xmlns="http://www.w3.org/2000/svg">
<ellipse cx="34.2272" cy="34.3227" rx="34.2272" ry="34.3227" fill="url(#paint0_linear_5_319)"/>
<path d="M50.1135 24.3495C48.8813 24.8856 47.5781 25.24 46.2446 25.4016C47.6515 24.5588 48.7058 23.2329 49.2119 21.6699C47.8898 22.4591 46.4426 23.0151 44.9331 23.3138C43.9242 22.2166 42.5806 21.4862 41.1131 21.2373C39.6456 20.9883 38.1372 21.2348 36.8245 21.9381C35.5117 22.6415 34.4689 23.7618 33.8596 25.1235C33.2503 26.4852 33.1089 28.0112 33.4576 29.4622C30.7844 29.3266 28.1697 28.6286 25.7831 27.4136C23.3965 26.1986 21.2916 24.4937 19.6049 22.4096C19.0133 23.4456 18.7025 24.6188 18.7032 25.8126C18.7011 26.9213 18.9725 28.0132 19.493 28.9913C20.0136 29.9693 20.7672 30.8032 21.6869 31.4185C20.618 31.3893 19.5719 31.1017 18.6377 30.5801V30.6623C18.6457 32.2156 19.1885 33.7185 20.1743 34.9167C21.1601 36.115 22.5283 36.935 24.0476 37.238C23.4627 37.4165 22.8556 37.5106 22.2443 37.5175C21.8211 37.5125 21.3991 37.4741 20.982 37.4024C21.4146 38.7386 22.2519 39.9064 23.3772 40.7432C24.5026 41.58 25.86 42.0442 27.2607 42.0712C24.8955 43.9376 21.9752 44.9561 18.9655 44.9646C18.4176 44.9664 17.87 44.9334 17.3262 44.8659C20.3991 46.8555 23.9801 47.9117 27.6378 47.9072C30.1619 47.9335 32.666 47.4552 35.0037 46.5002C37.3414 45.5451 39.4659 44.1325 41.2531 42.3449C43.0403 40.5573 44.4544 38.4305 45.4127 36.0888C46.3711 33.747 46.8545 31.2372 46.8348 28.706C46.8348 28.4265 46.8348 28.1306 46.8348 27.8347C48.1212 26.8726 49.2307 25.6933 50.1135 24.3495Z" fill="url(#paint1_linear_5_319)"/>
<defs>
<linearGradient id="paint0_linear_5_319" x1="34.2272" y1="-0.265612" x2="34.2272" y2="67.4391" gradientUnits="userSpaceOnUse">
<stop stop-color="#E8F5FF"/>
<stop offset="1" stop-color="#B4DFFF"/>
</linearGradient>
<linearGradient id="paint1_linear_5_319" x1="33.7199" y1="20.8353" x2="33.7199" y2="50.9679" gradientUnits="userSpaceOnUse">
<stop stop-color="#217CF0"/>
<stop offset="1" stop-color="#01ACF1"/>
</linearGradient>
</defs>
</svg>
