<svg width="60" height="61" viewBox="0 0 60 61" fill="none" xmlns="http://www.w3.org/2000/svg">
<path d="M59.4269 12.5119C59.2512 9.38259 57.9306 6.42768 55.7172 4.21141C53.5039 1.99513 50.5529 0.672755 47.4278 0.496758C35.7921 -0.16168 24.1286 -0.16168 12.493 0.496758C9.3678 0.672855 6.41681 1.99525 4.20341 4.21149C1.99 6.42772 0.669204 9.38257 0.493171 12.5119C-0.16439 24.1633 -0.16439 35.8426 0.493171 47.4939C0.669201 50.6233 1.98999 53.5782 4.2034 55.7944C6.4168 58.0107 9.36779 59.3331 12.493 59.5092C24.1286 60.1693 35.7922 60.1693 47.4278 59.5092C50.5529 59.3332 53.5039 58.0108 55.7172 55.7945C57.9306 53.5782 59.2512 50.6233 59.4269 47.4939C60.0845 35.8426 60.0845 24.1633 59.4269 12.5119Z" fill="url(#paint0_linear_5_741)"/>
<path d="M45.4375 27.0342H44.25V24.0654C44.2484 22.6487 43.6849 21.2904 42.6831 20.2886C41.6813 19.2868 40.323 18.7233 38.9062 18.7217H38.4307C37.8057 16.8215 36.5968 15.167 34.9764 13.9942C33.3559 12.8213 31.4066 12.1899 29.4062 12.1899C27.4059 12.1899 25.4566 12.8213 23.8361 13.9942C22.2157 15.167 21.0068 16.8215 20.3818 18.7217H18.7188C17.9317 18.7226 17.1771 19.0356 16.6205 19.5922C16.0639 20.1488 15.7509 20.9034 15.75 21.6904V41.2842C15.752 43.0158 16.4407 44.6759 17.6651 45.9003C18.8895 47.1247 20.5497 47.8135 22.2812 47.8155H37.7188C39.4503 47.8135 41.1105 47.1247 42.3349 45.9003C43.5593 44.6759 44.248 43.0158 44.25 41.2842V38.9092C45.1945 38.9081 46.1 38.5325 46.7679 37.8646C47.4358 37.1967 47.8114 36.2912 47.8125 35.3467V29.4092C47.8118 28.7795 47.5613 28.1758 47.1161 27.7306C46.6709 27.2854 46.0672 27.0349 45.4375 27.0342ZM45.4375 28.2217C45.7524 28.2217 46.0545 28.3468 46.2772 28.5695C46.4999 28.7922 46.625 29.0943 46.625 29.4092C46.625 29.7241 46.4999 30.0262 46.2772 30.2489C46.0545 30.4716 45.7524 30.5967 45.4375 30.5967H44.25V28.2217H45.4375ZM38.9062 19.9092C40.0082 19.9104 41.0646 20.3487 41.8438 21.1279C42.623 21.9071 43.0613 22.9635 43.0625 24.0654V26.2521C42.5578 25.5332 41.9135 24.9234 41.168 24.459C40.4224 23.9946 39.591 23.6851 38.7233 23.549C38.9622 22.3479 38.9672 21.1121 38.7381 19.9092H38.9062ZM29.4062 13.378C30.6488 13.3791 31.8754 13.6585 32.9958 14.1957C34.1163 14.7329 35.1022 15.5142 35.8811 16.4824C36.6601 17.4505 37.2122 18.5808 37.4971 19.7903C37.782 20.9998 37.7924 22.2577 37.5275 23.4717H36.3049C36.5763 22.419 36.6032 21.3181 36.3835 20.2534C36.1638 19.1887 35.7034 18.1884 35.0376 17.3291C34.3717 16.4698 33.518 15.7742 32.5418 15.2957C31.5657 14.8172 30.493 14.5684 29.4058 14.5684C28.3187 14.5684 27.246 14.8172 26.2699 15.2957C25.2937 15.7742 24.44 16.4698 23.7741 17.3291C23.1082 18.1884 22.6478 19.1887 22.4282 20.2534C22.2085 21.3181 22.2354 22.419 22.5068 23.4717H21.2861C21.0204 22.2577 21.0301 20.9996 21.3146 19.7898C21.5991 18.5801 22.1511 17.4495 22.9301 16.4811C23.7091 15.5128 24.6952 14.7314 25.8159 14.1944C26.9366 13.6574 28.1635 13.3784 29.4062 13.378ZM32.3535 23.4717C32.4005 23.1482 32.3702 22.8181 32.2652 22.5085C32.1602 22.1989 31.9834 21.9186 31.7493 21.6904C32.0043 21.4414 32.1909 21.1309 32.2912 20.7888C32.3914 20.4468 32.4019 20.0846 32.3216 19.7373C32.2413 19.39 32.0729 19.0693 31.8327 18.8059C31.5925 18.5426 31.2885 18.3455 30.95 18.2337V17.7717C30.95 17.6142 30.8874 17.4632 30.7761 17.3519C30.6647 17.2405 30.5137 17.178 30.3562 17.178C30.1988 17.178 30.0478 17.2405 29.9364 17.3519C29.8251 17.4632 29.7625 17.6142 29.7625 17.7717V18.128H29.05V17.7717C29.05 17.6142 28.9874 17.4632 28.8761 17.3519C28.7647 17.2405 28.6137 17.178 28.4563 17.178C28.2988 17.178 28.1478 17.2405 28.0364 17.3519C27.9251 17.4632 27.8625 17.6142 27.8625 17.7717V18.128H27.0312C26.8738 18.128 26.7228 18.1905 26.6114 18.3019C26.5001 18.4132 26.4375 18.5642 26.4375 18.7217C26.4375 18.8792 26.5001 19.0302 26.6114 19.1415C26.7228 19.2529 26.8738 19.3155 27.0312 19.3155H27.625V23.4717H23.7417C23.4623 22.5824 23.3961 21.6399 23.5486 20.7203C23.7011 19.8007 24.0679 18.9299 24.6195 18.1784C25.171 17.427 25.8918 16.8159 26.7233 16.3947C27.5549 15.9736 28.474 15.7541 29.4061 15.7541C30.3383 15.7541 31.2573 15.9736 32.0889 16.3947C32.9204 16.8159 33.6412 17.427 34.1927 18.1784C34.7443 18.9299 35.1111 19.8007 35.2636 20.7203C35.4161 21.6399 35.3499 22.5824 35.0705 23.4717H32.3535ZM30.2969 19.3155C30.5331 19.3155 30.7596 19.4093 30.9266 19.5763C31.0937 19.7433 31.1875 19.9699 31.1875 20.2061C31.1875 20.4423 31.0937 20.6688 30.9266 20.8358C30.7596 21.0029 30.5331 21.0967 30.2969 21.0967H28.8125V19.3155H30.2969ZM28.8125 22.2842H30.2969C30.4394 22.2841 30.5798 22.3182 30.7064 22.3837C30.833 22.4492 30.942 22.5441 31.0243 22.6605C31.1065 22.7768 31.1596 22.9113 31.1791 23.0524C31.1986 23.1936 31.1839 23.3374 31.1363 23.4717H28.8125V22.2842ZM18.7188 19.9092H20.0744C19.8501 21.0861 19.8501 22.2948 20.0744 23.4717C20.0744 23.4717 18.5946 23.4711 18.5673 23.4698C17.7207 23.4312 17.0243 22.7458 16.9427 21.8733C16.9427 21.8733 16.9374 21.7026 16.9374 21.6904C16.938 21.2182 17.1258 20.7654 17.4598 20.4315C17.7937 20.0976 18.2465 19.9097 18.7188 19.9092ZM43.0625 41.2842C43.0609 42.701 42.4974 44.0592 41.4956 45.061C40.4938 46.0628 39.1355 46.6264 37.7188 46.628H22.2812C20.8645 46.6264 19.5062 46.0628 18.5044 45.061C17.5026 44.0592 16.9391 42.701 16.9375 41.2842V38.3155H22.2812V40.6905C22.2812 40.8479 22.3438 40.9989 22.4552 41.1103C22.5665 41.2216 22.7175 41.2842 22.875 41.2842H27.7002C27.8447 41.8439 28.1884 42.3317 28.6668 42.6561C29.1452 42.9806 29.7256 43.1194 30.299 43.0465C30.8725 42.9737 31.3997 42.6942 31.7818 42.2605C32.1639 41.8267 32.3748 41.2685 32.3748 40.6905C32.3748 40.1124 32.1639 39.5542 31.7818 39.1204C31.3997 38.6867 30.8725 38.4072 30.299 38.3344C29.7256 38.2615 29.1452 38.4004 28.6668 38.7248C28.1884 39.0492 27.8447 39.537 27.7002 40.0967H23.4688V37.7217C23.4688 37.5642 23.4062 37.4132 23.2948 37.3019C23.1835 37.1905 23.0325 37.128 22.875 37.128H16.9375V35.9405H27.7002C27.8447 36.5002 28.1884 36.9879 28.6668 37.3124C29.1452 37.6368 29.7256 37.7756 30.299 37.7028C30.8725 37.6299 31.3997 37.3505 31.7818 36.9167C32.1639 36.483 32.3748 35.9248 32.3748 35.3467C32.3748 34.7686 32.1639 34.2104 31.7818 33.7767C31.3997 33.3429 30.8725 33.0635 30.299 32.9906C29.7256 32.9178 29.1452 33.0566 28.6668 33.381C28.1884 33.7055 27.8447 34.1932 27.7002 34.753H16.9375V33.5655H22.875C23.0325 33.5655 23.1835 33.5029 23.2948 33.3915C23.4062 33.2802 23.4688 33.1292 23.4688 32.9717V30.003H27.7002C27.8447 30.5627 28.1884 31.0504 28.6668 31.3749C29.1452 31.6993 29.7256 31.8381 30.299 31.7653C30.8725 31.6924 31.3997 31.413 31.7818 30.9792C32.1639 30.5455 32.3748 29.9873 32.3748 29.4092C32.3748 28.8311 32.1639 28.2729 31.7818 27.8392C31.3997 27.4054 30.8725 27.126 30.299 27.0531C29.7256 26.9803 29.1452 27.1191 28.6668 27.4435C28.1884 27.768 27.8447 28.2557 27.7002 28.8155H22.875C22.7175 28.8155 22.5665 28.878 22.4552 28.9894C22.3438 29.1007 22.2812 29.2517 22.2812 29.4092V32.378H16.9375V24.0885C17.3937 24.4317 17.9427 24.6294 18.5129 24.6561C18.5581 24.6582 37.7188 24.6592 37.7188 24.6592C39.1355 24.6608 40.4938 25.2243 41.4956 26.2261C42.4974 27.2279 43.0609 28.5862 43.0625 30.003V30.5967H38.9062C37.8039 30.5967 36.7468 31.0346 35.9673 31.814C35.1879 32.5935 34.75 33.6506 34.75 34.753C34.75 35.8553 35.1879 36.9124 35.9673 37.6919C36.7468 38.4713 37.8039 38.9092 38.9062 38.9092H43.0625V41.2842ZM28.8125 40.6905C28.8125 40.4556 28.8821 40.226 29.0126 40.0307C29.1431 39.8354 29.3286 39.6832 29.5456 39.5933C29.7626 39.5035 30.0013 39.4799 30.2317 39.5258C30.462 39.5716 30.6736 39.6847 30.8397 39.8508C31.0058 40.0168 31.1189 40.2284 31.1647 40.4588C31.2105 40.6891 31.187 40.9279 31.0971 41.1449C31.0072 41.3619 30.855 41.5473 30.6597 41.6778C30.4645 41.8083 30.2349 41.878 30 41.878C29.6852 41.8776 29.3833 41.7523 29.1607 41.5297C28.9381 41.3071 28.8129 41.0053 28.8125 40.6905ZM28.8125 35.3467C28.8125 35.1118 28.8821 34.8822 29.0126 34.687C29.1431 34.4917 29.3286 34.3395 29.5456 34.2496C29.7626 34.1597 30.0013 34.1362 30.2317 34.182C30.462 34.2278 30.6736 34.3409 30.8397 34.507C31.0058 34.6731 31.1189 34.8847 31.1647 35.115C31.2105 35.3454 31.187 35.5842 31.0971 35.8011C31.0072 36.0181 30.855 36.2036 30.6597 36.3341C30.4645 36.4646 30.2349 36.5342 30 36.5342C29.6852 36.5338 29.3833 36.4086 29.1607 36.186C28.9381 35.9634 28.8129 35.6615 28.8125 35.3467ZM28.8125 29.4092C28.8125 29.1743 28.8821 28.9447 29.0126 28.7495C29.1431 28.5542 29.3286 28.402 29.5456 28.3121C29.7626 28.2222 30.0013 28.1987 30.2317 28.2445C30.462 28.2903 30.6736 28.4034 30.8397 28.5695C31.0058 28.7356 31.1189 28.9472 31.1647 29.1775C31.2105 29.4079 31.187 29.6467 31.0971 29.8636C31.0072 30.0806 30.855 30.2661 30.6597 30.3966C30.4645 30.5271 30.2349 30.5967 30 30.5967C29.6852 30.5963 29.3833 30.4711 29.1607 30.2485C28.9381 30.0259 28.8129 29.724 28.8125 29.4092ZM38.9062 37.7217C38.1189 37.7217 37.3638 37.4089 36.807 36.8522C36.2503 36.2954 35.9375 35.5403 35.9375 34.753C35.9375 33.9656 36.2503 33.2105 36.807 32.6537C37.3638 32.097 38.1189 31.7842 38.9062 31.7842H45.4375C45.8546 31.7845 46.2644 31.6743 46.625 31.4647V35.3467C46.6243 35.9764 46.3738 36.5801 45.9286 37.0253C45.4834 37.4705 44.8797 37.721 44.25 37.7217H38.9062Z" fill="#0A8EED"/>
<path d="M36.8281 34.7529C36.8281 35.1639 36.95 35.5657 37.1784 35.9075C37.4067 36.2492 37.7313 36.5156 38.111 36.6729C38.4907 36.8302 38.9086 36.8713 39.3117 36.7911C39.7148 36.7109 40.0851 36.513 40.3757 36.2224C40.6663 35.9318 40.8643 35.5615 40.9444 35.1584C41.0246 34.7552 40.9835 34.3374 40.8262 33.9577C40.6689 33.5779 40.4025 33.2534 40.0608 33.025C39.719 32.7967 39.3173 32.6748 38.9062 32.6748C38.3553 32.6754 37.8271 32.8946 37.4375 33.2842C37.0479 33.6738 36.8288 34.202 36.8281 34.7529ZM39.7969 34.7529C39.7969 34.9291 39.7446 35.1013 39.6468 35.2477C39.5489 35.3942 39.4098 35.5084 39.2471 35.5758C39.0843 35.6432 38.9053 35.6608 38.7325 35.6264C38.5597 35.5921 38.401 35.5073 38.2765 35.3827C38.1519 35.2581 38.0671 35.0994 38.0327 34.9267C37.9984 34.7539 38.016 34.5748 38.0834 34.4121C38.1508 34.2494 38.265 34.1103 38.4114 34.0124C38.5579 33.9145 38.7301 33.8623 38.9062 33.8623C39.1424 33.8626 39.3688 33.9565 39.5357 34.1234C39.7027 34.2904 39.7966 34.5168 39.7969 34.7529Z" fill="#0A8EED"/>
<defs>
<linearGradient id="paint0_linear_5_741" x1="29.9601" y1="-0.229236" x2="29.9601" y2="58.9499" gradientUnits="userSpaceOnUse">
<stop stop-color="#E8F5FF"/>
<stop offset="1" stop-color="#B4DFFF"/>
</linearGradient>
</defs>
</svg>
