<svg width="27" height="27" viewBox="0 0 27 27" fill="none" xmlns="http://www.w3.org/2000/svg">
<path d="M18.5579 0H7.94608C3.55758 0 0 3.55758 0 7.94608V18.5579C0 22.9464 3.55758 26.5039 7.94608 26.5039H18.5579C22.9464 26.5039 26.5039 22.9464 26.5039 18.5579V7.94608C26.5039 3.55758 22.9464 0 18.5579 0Z" fill="white" fill-opacity="0.2"/>
<path d="M20.2641 12.0007C20.2956 11.1012 20.0961 10.2085 19.6841 9.40539C19.4045 9.07585 19.0165 8.85346 18.5878 8.77698C16.8142 8.61832 15.0334 8.55329 13.2528 8.58217C11.4787 8.55198 9.70423 8.61491 7.93692 8.77069C7.58752 8.83336 7.26417 8.99494 7.00633 9.23572C6.43268 9.75729 6.36894 10.6496 6.3052 11.4037C6.21272 12.7596 6.21272 14.12 6.3052 15.4758C6.32364 15.9002 6.38774 16.3215 6.49642 16.7326C6.57327 17.05 6.72876 17.3437 6.94897 17.5873C7.20855 17.8408 7.53944 18.0116 7.89868 18.0774C9.27285 18.2447 10.6575 18.314 12.0417 18.2848C14.2726 18.3162 16.2294 18.2848 18.5431 18.1088C18.9112 18.047 19.2514 17.876 19.5184 17.6187C19.6968 17.4427 19.8301 17.2272 19.9072 16.9903C20.1351 16.3007 20.2471 15.5789 20.2386 14.8537C20.2641 14.5018 20.2641 12.3778 20.2641 12.0007ZM11.8123 15.2307V11.3409L15.5856 13.2952C14.5276 13.8734 13.1317 14.5269 11.8123 15.2307Z" fill="#F6F9FC"/>
</svg>
