<svg width="69" height="70" viewBox="0 0 69 70" fill="none" xmlns="http://www.w3.org/2000/svg">
<ellipse cx="34.3626" cy="34.9681" rx="34.2728" ry="34.3227" fill="url(#paint0_linear_5_335)"/>
<path d="M49.901 32.2442C49.9709 30.2245 49.5282 28.2198 48.6138 26.4165C47.9935 25.6765 47.1326 25.1772 46.1811 25.0054C42.2455 24.6492 38.2937 24.5032 34.3425 24.568C30.4057 24.5002 26.468 24.6415 22.5463 24.9913C21.7709 25.132 21.0534 25.4948 20.4812 26.0355C19.2083 27.2067 19.0668 29.2104 18.9254 30.9037C18.7202 33.9481 18.7202 37.0029 18.9254 40.0473C18.9663 41.0004 19.1086 41.9464 19.3497 42.8695C19.5203 43.5821 19.8653 44.2415 20.3539 44.7885C20.93 45.3578 21.6642 45.7413 22.4614 45.8891C25.5108 46.2646 28.5833 46.4203 31.6551 46.3548C36.6055 46.4253 40.9477 46.3548 46.0821 45.9597C46.8988 45.8209 47.6537 45.437 48.2461 44.8591C48.6421 44.4638 48.9379 43.9801 49.1089 43.448C49.6147 41.8995 49.8632 40.2789 49.8444 38.6504C49.901 37.8602 49.901 33.0908 49.901 32.2442ZM31.1459 39.497V30.7626L39.5192 35.151C37.1713 36.4491 34.0737 37.9166 31.1459 39.497Z" fill="url(#paint1_linear_5_335)"/>
<defs>
<linearGradient id="paint0_linear_5_335" x1="34.3626" y1="0.379774" x2="34.3626" y2="68.0845" gradientUnits="userSpaceOnUse">
<stop stop-color="#E8F5FF"/>
<stop offset="1" stop-color="#B4DFFF"/>
</linearGradient>
<linearGradient id="paint1_linear_5_335" x1="46.4811" y1="26.8166" x2="30.005" y2="50.2275" gradientUnits="userSpaceOnUse">
<stop stop-color="#217CF0"/>
<stop offset="1" stop-color="#01ACF1"/>
</linearGradient>
</defs>
</svg>
